<?xml version="1.0" encoding="UTF-8"?>
<svg version="1.1" viewBox="0 0 2048 2048" width="584" height="584" xmlns="http://www.w3.org/2000/svg">
<path transform="translate(1007,17)" d="m0 0h24l10 3 11 6 8 8 8 14 2 7v111l5-3 14-14 8-7 13-13 14-11 12-7 10-3h11l15 4 11 6 10 10 5 8 5 16v12l-5 15-6 9-105 105-7 8-9 12-1 29v69l7-4 139-139 10-6 4-4 8 1 5-3 8-1 18 5 11 6 4 3 4 7 6 7 4 8v9l4 5-1 5-2 2-2 9-7 14-11 12-34 34-5 7-11 9-148 148-9 14-1 2-1 22v74l6-4 10-8 13-11 4-7 10-7 12-12 12-6h11v-2l6-2 9 5 2 1 1-2 7 1 6 5 8 5 6 8 6 13 3 10 2 3-1 5-6 18-2 5-8 12-7 7-8 5-16 16-7 8-10 9-12 13-5 4-6 8-6 7-8 7-14 12-10 11-6 11-1 2-1 21v109l15-4 20-12 17-10 28-16 24-14 13-9h2l2-5 4-8v-9l7-19 3-10 2-9 2-6 2-9 3-13 5-16 2-9 7-25 2-5v-6l4-8-1-7 3-1 2-5 7-11 8-8 8-5 7-2h29l10 5 8 7 7 8 5 7 1 6h3v2l-2 1v5l4 5-2 5-2 1v7l2 5-4 3-1 7 1 4-5 4-1 2 2 1v8l-4 4v5l1 4-4 5-1 9 11-5 19-9 13-8 15-8 14-7 10-9 7-10 6-15 6-17v-10l3-7 4-12v-6l3-6v-7l3-4 1-11h2l2-11v-3l2-5 4-13v-6l3-5 1-9 3-9 3-6 1-7v-3l3-4 1-7v-4l3-7 1-4-2-1 3-1 2-10 3-9v-9h2l2-10 3-9 4-16 3-9 4-16 5-10 11-12 7-6 10-5 9 1 3-4 6 1 1 2 6 1 3-1 12 6 5 4v2l3 1 5 6 3 3 4 5 3 12v4l-1 4 2 3h-3l2 10-2 4h-2v9l1 4-4 2-1 6 2 6h-4v2h-2v3l2 1-2 5h2v3l-4 2-1 6 2 5-5 1 1 6-2 2 2 2-5 4v7l2 3-4 2-2 9h2v3l-4 1-1 9 1 4-3 1-1 3 1 3h-3l3 4-5 5-1 6h2l-1 4-2 1-1 9 1 4-3 2-3 11-5 17v12l6-1 22-12 12-8 4-4h2v2l6-3 4-4 16-8 6-4 7-8 7-13 1-6-1-3h2l2-7v-7l3-3 2-11 3-8-2-2 4-5 1-5 1-2h-2l2-6h2l1-8-1-3h2l2-10 3-9v-5l3-5 1-9 3-8 3-13 6-17 4-8 9-10 6-5 8-3h35l9 4 8 7 7 8 3 5 3 12 3 6v3h-2l1 7 1 5-4 3v7l1 4-5 4 1 10-4 3v8l1 3-5 4v16l9-3 39-22 18-11 14-8 11-5 10-3 6-1h12l14 4 6 4 13 13 6 12 3 10v11l-4 12-7 14-8 8-18 11-19 11-12 8h-4l-10 7-13 8-12 6h-2l1 4 5 4 7 4 7-1 8 4 7 1 27 9 8 3 5 4 2 3 7 4 2 3 2 6 5 9-1 6 1 3 4 4-2 4-3 2 1 10-4 5-1 7-7 8-8 6-12 6-5 1-5-1-4-1v2h-5v-2l-5 1h-3l-5 1-1-2-4-1v-2l-3 1v-2h-4v2l-5 1-2-3h-4v-3l-4-1-2 4-3-3h-3l-4-3h-2l-1 2h-3v-3h-2l-1 2-3-4-3 1v-2h-2l-1 3h-2v-4h-2l-1 2-4-4v2l-8-2-2-3v2l-5-2v-2l-4 1-5-3-1 2h-3v-3l-4 1-2-3-2 2-5-3-8-2h-4l-5-3-9-2-5-2h-21l-7 3-11 4-10 6-18 12-11 6-10 6-14 8 1 3 3 3v2l10 2 2-1 8 4 7 1v2h4v2l5-2 4 1 1 3 7 1 1-1h5l2 3 7 1 4-1 2 3 9 1 4 1 6 3 6-1 5 3 16 4 16 5 5 2v2l7-2 21 7 16 4 17 6 16 16 8 16 1 3v17l-4 11-6 10-11 11-12 7-8-1-5 4h-7l-8-4v-2l-5 3-5-1-5-2v-3l-5 3h-3l-1-2-5-3-8 1-4-3v-2h-3l-1 2h-3l-2-1v-3l-4-1h-3l-3 2-2-2-2 1v-3h-3v-2l-5 1h-4v-2h-4l-1-2-2 1-2-2-2 2h-3l-1-2h-3v-3l-2-1-1 3-6-2-4-2-3-3-1 4-3-1v-3h-2l-1 3v-3l-3-1-4-2-1 3h-3l-2-3h-3v-3h-2l-1 2-1-2-2 2h-3v-3l-5 1v-3l-2-1v3l-6-1-1-2h-2v-3l-5-1-1 4-5-4-1 2v-2l-3-1-3-2-1 3-4-1-1-2-2 1-2-1v-3h-2l-1 2v-3h-2l-1 3h-3l-1-2h-3v-4l-3 3h-2l-2-3h-5v-3l-4-1-1 3h-3v-3l-4 1-2-3-2 1-1-2-3 3h-2v-3l-4 1-1-2 1-2h-3v2l-5-1-6-2 2-1v-2h-5l-1 3-5-1v-2l-3-1-1-1-2 1v-2l-3 2h-3l-1-2-6-2-5-1-3 1v-2l-4 2h-11l-14 8-25 15-32 18-6 4 1 4h2l2 3 4 1v2l8-1 6 3 10 2 33 11 15 10 6 9 5 14 1 19-5 13-5 8-7 8-11 8-12 6h-4v-2h-6l-2 2-5-1-5-2-1-2-4 2h-3v-2l-6-1v-3h-3l-3 3h-2l-1-2-4-2v-2l-5-1-1 3-4-1-3-1-1-3-2-1-1 3-5-1v-3h-3l-1-2h-3l-1 2-4-1-2 1v-3h-3v-3l-4 1-4 2-2-3-4-1v-2l-3 1h-2l-4 1-1-2h-3v-3h-2l-1 2-4-2-5-2-4-3-1 3h-3l-1-3-2 2v-2h-2v-3h-2v2h-2l-1-2-2 3h-2l-1-3-2 1-2-2 1-2h-3v2h-2v-2l-6-1-9-3v2h-5l-1-1h-6l-20 10-18 11-15 9-21 12-25 15-14 7 2 4 7 8 10 6 7 2 15 10 14 8 8 4 10 7 9 6 3-1 10 8 7 3 6 3h30l7-3 9-3 6-1h3l3-1 1-2 10-1 2-4 8 2 3-1 2-4 6 1h4 2l2-5 10 2 4-5 4 1h3 2l2-5 7 2h2l3-3 1-2 7 1h4l3-4 10 1 4-4h29l9 4 10 5 8 8 8 15 1 3 1 25-3 10-7 9-11 8-12 7-14 5-10 3-4 1-3-1-7 4-5 1-10 3-6 1 1 6 5 5 11 7 31 16 11 7 15 8 11 5 5-1 4-3 9 1 6-5h5l3 2 3-1 2-3 9-1h2l2-4 9 1 3-1 3-4 9 2h2l2-5h12l4-4h6v-2l6-1 4 1 4-1 3-3h7 3 2l2-4h6l3 1 3-3 11-2 2-3 8 1 3-1 2-3h10l7-4 7-1 2-2 9-1 3-3h5l1 1h5l4-4h6l3 1 5-5h6l3 1 5-4 9-1 2-3 9 1 5-4h12l1-3 5-1 15 1h10l12 5 8 7 6 7 8 16 2 5v13l-4 14-5 10-9 9-17 9-5 3-6 2-5-3-2 4-4 2h-3v-2h-3l-1 3-6 4-5-3-3-1-1 3h-3l-2 3-8-1v2h-2v2l-4 1-2-1v-2h-2l-3 3-1-1-2 4-4-1h-3l-1 2h-2l-2 3-5-1v-2l-5 3h-2l-1 3-4 1-1-3-9 2-5 4-3-2-5 3-3 3-5-3h-2l-2 3h-3l-1 3-5-2-2-1-4 4-5 2-3-2-1 3-5 1v2l-7-2-3 3-11 3-3 1 2 7 15 10 14 9 9 5 9 6 9 5 5 4 15 5 2 1h12l3 1 23-8 6-1 1-2h9l3-1 2-3h9l3-4 11 1 6-4h6l2 1 1-5 7 1h3 3l1-4h4l6 1 1-5h3l6 3v-2l3-1 2-4 9 2 5-5 11 1 3-4 11 1 6-1 8 3 11 4 9 7 8 9 5 10 1 9 2 4v11l-4 13-5 8-6 7-7 5-5 3-4 3-7-1-1 3h-3v2l-3 1-2-2-4 1-6 4-6-2-3 3-7 2-6 2-16 6 2 4 13 8 17 10 20 11 8 5 11 6 13 8 5 3 11 13 4 7 5 10 1 5-2 13-6 16-7 11-8 6-12 6-19 1-4-1-4 1-9-3-10-4-16-10-16-9-15-10-17-9-13-8-4-2v15l3 6 2 3-1 1v7l4 5-1 8 5 7-2 5 1 6 4 5-1 9 1 8-3 5-3 10-6 9-6 5-6 3-6 5-5-1-1 2-4 2h-6l-3-1h-4l-7 1-5-2v-2h-7l-8-7-11-11-5-11-7-22-6-25-4-13-3-11-4-15-2-10-6-19-2-9-2-5-1-8-2-6-2-9-8-14-9-6-13-8-24-12-7-5-4-4-16-8-11-5 2 15 4 12v2l3 1-2 2 1 7 4 6-2 2 3 8 2 4 1 6 1 3h2v2h-2l2 8 4 4v2h-2v5l3 5v2h2v2h-2l1 9h2l3 3v2l-3 3 2 6h2v3h2v2h-2l1 6 4 6 1 8 3 4-2 3 3 7 2 4 1 6 1 3h2v2h-2l2 9 4 6-3 1 2 5-1 4 3 6 2 5-4 4-1 5 1 5-2 2-3 7-7 8-9 6-7 6-6-1-2 3-6 2-3-2v2h-2l-1-2-5 2-8-2v-3l-7 1-7-5v-2l-5-1-6-7-1-4h-2l-7-14-2-11-3-9-2-5-2-10-2-7-2-8-5-16-2-9-5-13v-9l-4-11-4-14-2-4-1-10-3-5v-9l-4-11-4-17-2-5-5-22-5-16-3-12-5-14v-8l-3-8-2-11-5-13-5-8-11-8-20-11-13-8-17-10-13-6-12-2 4 13 1 8 6 11v12l3 3v42l-8 15-14 10-15 5-7 2-6-3v2l-5 1-7-4-6-1-12-8-6-8-4-6-7-21-11-43-8-29-4-15-6-22-6-24-5-14-5-6-19-11-25-15-18-10-17-10-18-10-15-7h-3l-1 3-1 30v83l2 5 2 2v4h-2l3 10 14 14 6 7 3 5 8 6 9 9 7 8 12 13 9 9 10 8v2l4 2v2l3 1v2l4 2 13 13 9 11 8 8 9 17v22l-2 3-2 8-6 9-5 5-7 5-5 5h-7l-5 4h-21l-14-7-10-8-13-11-6-7-4-6-2-1v-2l-4-2-13-8-6-2-1 19v25l1 44 4 12 7 9 189 189 8 7 9 10 8 14 5 15 1 7-5 16-8 12-10 10-10 5-9 3-7 1h-3l-7-1-3-2-9-2-16-10-10-10-8-7-69-69v-2l-4-2-3-3v-2l-3-1-7-8-26-26-8-6-6-1-1 47v38l2 8 3 9 8 7v2l4 2 91 91v2l3 1 7 8 9 10 5 15 1 2v18l-2 3-3 10-8 11-5 5-8 5-8 4-29 1-16-8-13-12-31-31-9-3-1 40-1 72-4 10-9 10-8 7-12 6-10 3h-9l-5-2v-2l-8 1-9-5-9-7-6-9-6-14-3-8v-103l-10 5-16 15-10 10-6 8-16 11-11 5-6 1h-11-3l-8-1-2-2-8-2-8-7-9-9-6-11v-7l-1-4-3-1 1-5 3-3-1-11 6-11 7-8 6-9 20-20h2l2-4 17-17h2l2-4 18-18 4-3h4l2-5 4-5h2l2-4 11-12 13-13 6-9 1-99-11 8-67 67-4 5-4 4h-2l-2 4-3 3h-2l-2 4-3 3h-2l-1 3-6 5-5 6h-2l-2 4h-2l-1 3h-2l-2 4-17 17-8 7-10 6-7 1-7 4-3-2-6 1-5 1-6-4-9-2-9-6-3-4v-4l-4-2-7-10-3-10v-4l-4-2 2-5h2l1-9 2-4 2-7 5-7 4-7 12-13 198-198 4-7 1-98-7 4-10 10-5 4-5 5-4 5h-2l-2 4-12 12-10 8-13 6h-25l-14-7-10-9-8-9-3-7-1-13-3-1v-6l2-3 4-13 3-9 7-8 111-111 6-9v-133l-12 3-22 12-14 8-15 10-26 15-17 9-9 8-3 3-6 13-1 5-3 4v5 4l-3 3-1 10-3 4-1 6 3 1-3 7h-2l-1 10-4 2 1 6 1 3-2 4h-2l-1 3 2 1-3 6-3 1 1 2v7l-4 3v5l2 1-2 5-3 2-1 6h2l-2 6h-2v11l-1 2h-2l-1 4v4l-5 12-6 9-9 9-10 6-12 4h-12l-8-3-13-5-9-7-6-8-5-10-3-12-2-1v-7l4-2v-9-3l3-4 1-7-1-3 2-5h2v-9l2-4h2v-7l-1-3 4-8-3-5-6 1-8 6-16 8-9 6-16 8-18 11-11 8-2 4v5l-2 4-1 3h-2l2 8-2 2h-3l1 6-2 2v4l-4 2 3 10-4 1-1 4 1 2h-2v4h2v3l-3 2-2 6 1 6-3 1v6h-3l3 4-5 4v7l2 3h-4v4h-2l1 7 1 3h-4l1 4-3 1 3 9-4 2v5l-2 1 2 3h-4l1 4h-3l1 7 2 1v2h-3l-1 4h-2l1 7 1 2-3 1v5l-3 1 3 4-4 1 1 3-3 1 1 7 1 2-3 1-1 4h-2l1 6 2 1v2h-4v5h-2l2 9h-4l1 6h-3l2 5-3 1v2h-2l1 9 1 2-3 1-2 3 1 5 1 2-2 1v2h-2l-1 9 1 2-1 3-2 1-2 7 1 3-5 10-4 10-7 9-6 5-15 7h-30l-12-6-11-11-6-10-4-5v-28l3-5 1-6v-4l3-5 1-6h-2l4-8 1-5v-4l2-4 2-7h-2l1-3 2-1 1-8 3-7 2-6-2-1 4-8 1-4-1-3 3-3 1-7 5-12h-2l4-10v-9l3-6 4-14 4-16 2-6 1-15-16 8-16 9-15 8-6 4-14 7-10 7-6 4-4 6-2 4-1 7-2 4h-2v7h2v3h-4l1 4-2 2 1 8h-4l1 6-3 1v2h2l-2 5h-3l1 5-1 3h2v3h-4l1 3-2 2 2 9h-4v4h-2v5h2l-1 5h-3l1 7h-2l-1 2h2v2h-3l-1 9 2 1-2 4h-3l-1 4h2l-2 4v3h-2l-1 8 2 1-3 5-2 3-1 4 2 1-2 5-8 16-12 12-10 6-10 3-2 1h-13l-10-4-16-9-8-8-6-12-4-12 1-13 2-4v-8l4-6v-9l3-4 1-10 3-8-1-13-10 2-14 8-13 7-10 6-16 9-10 6-11 7-5 2h-3l-5 3-8-1-4 1h-4v-2l-2 2h-5v-2l-3 1-2-1v-2h-7l-8-7-7-7-9-17-1-10-4-2 1-4 3-3v-9l6-12 7-8 5-6 14-9 20-10 9-6 12-7 16-9 9-5 8-6 1-5h-2v-3l-3 2-8-1-3-3-4 1-6-3v-2l-3 1v-2l-6 2-6-4h-3l-7-2v-2l-8 1-13-7-10-9-7-10-3-7v-32l7-14 9-8 8-6 9-4h14l10 1 5-1 3 1v2l8 1 4-1 3 3h3v2l6-1 11 4 4 1v2l3-1 1 2 8-1 6 4 7-1 5 3 6 1 5 1v2h5l6 2 4 1v3l6-2 8 3v2l5-1 5 1 1 4 4-1 2 1 1-3 6 2v2l11 1h23l2-5 3-2h8l5-6 9-4 10-7 19-10h2v-2l13-7h2v-6l-2-2 1-2-6 3-2-2-5-1v-3h-2v2h-5l-4-3h-2l-1-3-2-1-2 4-5-1-3-4-2 1v-3l-4 3h-2l-1-2h-3l-2-3-1 2-6-1v-3h-5l-2-2-1 2-4-1-2 1-2-4-3 1-2-3-2 3-3-1v-2l-2 2-3-4-2 1-3-3-1 3-6-2-3-3-1 2-2-3-4 3-2-3h-3v-3l-5 2-2-3h-5l-3-3-2 3-3-1v-3h-2l-1 3-2-5h-2l-1 2-1-3h-2v3h-3v-4h-2l-1 3-2-4-2-1v3l-5-1v-3h-4v-2l-3 1v-2h-2v3l-4-1-4-2-1-2-3 1-13-5-11-6-7-8-5-8-6-17v-9l6-17 7-13 8-7 9-4 5-3 8 1 3-1 4-4 5 2v2l4 1h3l1-1 7 1 4 2 9 2v2h4v2l6-2 4 2 4 1v2l8-1 2 1v2l12 1 16 6h6l9 4h7l7 3 13 3 11 4 14 3 3 1 24 6 12 4 10 2 6 2h5l7 3 9 2 13 4 4 2 4-1 9 4 6 1 4 2v2l7-2 7 4h9l6 4 7-2 16-8 14-8 10-6 14-8 22-12 4-4 1-4-13-6-8-1-1-2-5-2-3 2-5-3-3-3-1 3-8-4v-2h-6l-2 2-9-5-8-4-10-9-6-11-4-12v-20l8-17 9-10 18-9h24l3 1v-2l7 2v2l4-1 2 2 7-1 1 3 10 1 1 2h3v3l6-2 4 1v2h4v2l9-2 2 3h3l1 2 8-1 1 3 11 1h3v2l10 1 4 2 1 4 7-3 3 1 4 4 9-1 1 3h4l2 2 1-1h6l5 3h23l16-8 10-7 12-6 13-8 19-11 22-12 15-10 5-3 1-2-6-2-11-7-29-15-18-12-12-7-16-9-22-11-7-3-1 3h-3v-3h-3v2l-8-1-4 3-4 2-3-2-4 1-7 5-3-3-4 1-4 5-4-2-4-1 1 3h-3v3l-4 1-5-4v2h-2v2h-3l-1 3-4-1-2-1v-2h-2v2h-2v2l-5 4-5-3-6 2-1 4-7-2-4 5h-5l-4-2-5 5-3 1-5-3-5 5-4 1-4-1-3 1v3l-6 1-5-2-7 4-3 1h-4l-8-2v-2h-8l-13-7-5-5-3-5-6-7-3-10-1-2v-19l6-18 6-9 9-7 12-6 6-2 3 2 4-1v-2l5-2h6l2-3h6 3l3-1 2-3 8 1 6-4 5-3-1-4-7-4-10-7-16-8-20-13-20-11-5-2-7 1h-9l-7-1-6 3-1 2-6-2-1 3-3 1-1 2-4-2h-3l-3 2h-3l-1 3-5-2-3-1v2h-3l-2 5-6-2-4 1v4l-3 1-4-3v-2h-2l-2 5h-3l-1 3-5-2-3-2v2l-5 5-7-1-1 1h-2l-1 4-5-1-3-2-3 1v2l-4 4-4-2h-4l-5 2v3l-4-1-4-2-4 4h-2v2l-5-1-3-2-6 6h-5l-1-3-4 4-6 3-5 1-1 3-11-2-5 5-6-2-1 2v-2h-2l-1 4-5 1h-6l-2 5-5-1v-2l-5 1-3 1-4 4-5-2h-3l-5 5-5-1-2-1-1 3-3 3-5-1-3-1-4 3h-2l-1 3h-2v-2h-8l-8 4h-6l-6-4-7 1-11-6-10-9-6-8-3-8-1-9-2-3v-9l5-16 4-7 8-9 14-9 9-4h7l5-3 8-1 3-3h7l5-4 6 1v2l5-1v-2l4-1v-2l4 1 5-1 2-4h5l3 2 4-1 2-5 9 2 1-5 7 1v2h2v-2h4l1-5 9 2h3l2-5 7 1h3 2v-3l7-1h4l2-4 8 2 5-5h7l2 1 4-3 10-2 2-2 9-3-2-8-5-2-13-8-16-10-23-12-9-5-4-4h-28l-6 4-6-2-1 3-3-1-1 5-7-4v2l-5 1v3l-3 1-6-4-2 4h-3l-1 3-4-1-4-3-1 3h-2l-2 4-7-1-5 5-5-1-5-2-1 2h-2l-1 2-2 2h-3v-2l-4 1-2 3h-2v2l-5-1-3-2-2 4-4 2-4-1-3-2v4h-3l-1 3-8-2h-2l-1 3-3 2h-6v-2l-6 2v-2h-3l-1 2-7-1h-10l-6 1-4-2-5-6-9-6-4-5-6-13v-33l5-10 14-14 7-3 5-6 5 2 4-1 4-3h9l2-4 9 1 4-4 6-1v2l5-1 2-3 10-2 1-3-5-5-22-13-21-11-8-5-15-9-12-7-11-8-5-6-7-15v-29l8-16 7-8 10-6 9-4 10-1h12l12 4 10 6 14 8 17 9 13 8 13 7 10 6 13 6-2-17-2-8-1-9h-2l-1-9-1-4-3-4 1-9-3-6-1-10 4-15 7-12 8-9 11-7 1-1h36l8 3 10 9 7 8 5 12 6 19 1 7 5 15 2 4h-2l4 12h2v2l-2 1 2 7 3 5 1 7 3 4h-2l1 7 2 5 3 1-2 2 1 7 4 6-2 1 2 8 2 2 1 7 3 5-1 4 5 14 5 10 8 7 22 12 8 5 15 9 19 11 10 4 2-6-2-12-3-14-5-15-1-8-2-5-3-12-4-13-1-5-4-11-1-5-2-6-1-7-2-5-2-10-2-6-2-9-2-7-3-7v-9l-3-7v-6l-4-9v-20l4-11 6-11 8-8 16-8 4-1h22l8 2 10 5 6 7 9 12 6 17 2 10 4 13 2 4-1 3 4 9 1 2h-2l2 8 4 5-3 1 3 9 2 5 3 8 2 2-3 1 3 8 1 4 2 1-1 5 2 5 3 4-2 1 2 8 3 8 1 6 3 1-2 4 3 8 2 1v2h-2l4 12 1 4 2 7h2v2h-2l4 11 1 3h-2l5 12 3 10v3l3 9 3 10 1 4h2l-2 4 1 6 3 7 3 9 1 4 1 7 3 8 3 7 3 4 9 5 8 5 7 4 10 6 15 8 4 4 7 1 8 6 6 3 4 4h5l-1-10-3-8-1-9-2-6-1-8-2-4-1-9-3-5v-27l3-10 6-8 9-9 16-8 9-1h20l9 4 8 7 10 10 5 9 3 11 2 5-1 3 4 8 1 3h-2l3 9 2 4 1 6 1 3 3 1-3 4 4 8 2 1v2l-2 1 3 9 1 5 3 7 2 2-2 4 3 6v3l3 1-3 1 3 9 2 5 1 5 3 5-2 3 5 10-1 5 3 6 3 4 3 10 5 1 6 5 9 5 3 3 7 1 11 8 13 8 12 6 13 8 16 10 11 4 9 6 2 1-1-134-7-11-7-10-9-6-8-10-84-84-8-11-6-13-1-10-3-2 4-10 1-7 4-8 8-12 5-4 16-7h28l12 6 5 5 16 12 9 9 4 6 1 3 8 4 6 8 6 1v-98l-8-10-7-8-45-45-6-5v-2l-4-2-129-129-5-6-14-14-9-17v-25l4-12 6-8 11-11 12-6 10 1 2-4h7l3 2 9 2 10 5 14 10 48 48 5 6 8 7 73 73 5 3v-99l-7-9-4-4v-2h-2l-7-8-8-7v-2l-4-2-84-84-6-8-7-14v-7l-1-4-3-2 2-5 2-3v-8l9-17 7-7 8-5 7-3h6l1-3h6l3 1h5v-2l14 4 7 4 11 8 38 38 8 5v-105l6-18 10-13 9-8 8-4zm745 717m5 1m-1361 149 1 2zm851 76m-591 200m179 70m-1 11m-1 2m-1 1 1 3z" fill="#2196FA"/>
<path transform="translate(1007,17)" d="m0 0h24l10 3 11 6 8 8 8 14 2 7v111l5-3 14-14 8-7 13-13 14-11 12-7 10-3h11l15 4 11 6 10 10 5 8 5 16v12l-5 15-6 9-105 105-7 8-9 12-1 29v69l7-4 139-139 10-6 4-4 8 1 5-3 8-1 18 5 11 6 4 3 4 7 6 7 4 8v9l4 5-1 5-2 2-2 9-7 14-11 12-34 34-5 7-11 9-148 148-9 14-1 2-1 22v74l6-4 10-8 13-11 4-7 10-7 12-12 12-6h11v-2l6-2 9 5 2 1 1-2 7 1 6 5 8 5 6 8 6 13 3 10 2 3-1 5-6 18-2 5-8 12-7 7-8 5-16 16-7 8-10 9-12 13-5 4-6 8-6 7-8 7-14 12-10 11-6 11-1 2-1 21v109l15-4 20-12 17-10 28-16 24-14 13-9h2l2-5 4-8v-9l7-19 3-10 2-9 2-6 2-9 3-13 5-16 2-9 7-25 2-5v-6l4-8-1-7 3-1 2-5 7-11 8-8 8-5 7-2h29l10 5 8 7 7 8 5 7 1 6h3v2l-2 1v5l4 5-2 5-2 1v7l2 5-4 3-1 7 1 4-5 4-1 2 2 1v8l-4 4v5l1 4-4 5-1 9 11-5 19-9 13-8 15-8 14-7 10-9 7-10 6-15 6-17v-10l3-7 4-12v-6l3-6v-7l3-4 1-11h2l2-11v-3l2-5 4-13v-6l3-5 1-9 3-9 3-6 1-7v-3l3-4 1-7v-4l3-7 1-4-2-1 3-1 2-10 3-9v-9h2l2-10 3-9 4-16 3-9 4-16 5-10 11-12 7-6 10-5 9 1 3-4 6 1 1 2 6 1 3-1 12 6 5 4v2l3 1 5 6 3 3 4 5 3 12v4l-1 4 2 3h-3l2 10-2 4h-2v9l1 4-4 2-1 6 2 6h-4v2h-2v3l2 1-2 5h2v3l-4 2-1 6 2 5-5 1 1 6-2 2 2 2-5 4v7l2 3-4 2-2 9h2v3l-4 1-1 9 1 4-3 1-1 3 1 3h-3l3 4-5 5-1 6h2l-1 4-2 1-1 9 1 4-3 2-3 11-5 17v12l6-1 22-12 12-8 4-4h2v2l6-3 4-4 16-8 6-4 7-8 7-13 1-6-1-3h2l2-7v-7l3-3 2-11 3-8-2-2 4-5 1-5 1-2h-2l2-6h2l1-8-1-3h2l2-10 3-9v-5l3-5 1-9 3-8 3-13 6-17 4-8 9-10 6-5 8-3h35l9 4 8 7 7 8 3 5 3 12 3 6v3h-2l1 7 1 5-4 3v7l1 4-5 4 1 10-4 3v8l1 3-5 4v16l9-3 39-22 18-11 14-8 11-5 10-3 6-1h12l14 4 6 4 13 13 6 12 3 10v11l-4 12-7 14-8 8-18 11-19 11-12 8h-4l-10 7-13 8-12 6h-2l1 4 5 4 7 4 7-1 8 4 7 1 27 9 8 3 5 4 2 3 7 4 2 3 2 6 5 9-1 6 1 3 4 4-2 4-3 2 1 10-4 5-1 7-7 8-8 6-12 6-5 1-5-1-4-1v2h-5v-2l-5 1h-3l-5 1-1-2-4-1v-2l-3 1v-2h-4v2l-5 1-2-3h-4v-3l-4-1-2 4-3-3h-3l-4-3h-2l-1 2h-3v-3h-2l-1 2-3-4-3 1v-2h-2l-1 3h-2v-4h-2l-1 2-4-4v2l-8-2-2-3v2l-5-2v-2l-4 1-5-3-1 2h-3v-3l-4 1-2-3-2 2-5-3-8-2h-4l-5-3-9-2-5-2h-21l-7 3-11 4-10 6-18 12-11 6-10 6-14 8 1 3 3 3v2l10 2 2-1 8 4 7 1v2h4v2l5-2 4 1 1 3 7 1 1-1h5l2 3 7 1 4-1 2 3 9 1 4 1 6 3 6-1 5 3 16 4 16 5 5 2v2l7-2 21 7 16 4 17 6 16 16 8 16 1 3v17l-4 11-6 10-11 11-12 7-8-1-5 4h-7l-8-4v-2l-5 3-5-1-5-2v-3l-5 3h-3l-1-2-5-3-8 1-4-3v-2h-3l-1 2h-3l-2-1v-3l-4-1h-3l-3 2-2-2-2 1v-3h-3v-2l-5 1h-4v-2h-4l-1-2-2 1-2-2-2 2h-3l-1-2h-3v-3l-2-1-1 3-6-2-4-2-3-3-1 4-3-1v-3h-2l-1 3v-3l-3-1-4-2-1 3h-3l-2-3h-3v-3h-2l-1 2-1-2-2 2h-3v-3l-5 1v-3l-2-1v3l-6-1-1-2h-2v-3l-5-1-1 4-5-4-1 2v-2l-3-1-3-2-1 3-4-1-1-2-2 1-2-1v-3h-2l-1 2v-3h-2l-1 3h-3l-1-2h-3v-4l-3 3h-2l-2-3h-5v-3l-4-1-1 3h-3v-3l-4 1-2-3-2 1-1-2-3 3h-2v-3l-4 1-1-2 1-2h-3v2l-5-1-6-2 2-1v-2h-5l-1 3-5-1v-2l-3-1-1-1-2 1v-2l-3 2h-3l-1-2-6-2-5-1-3 1v-2l-4 2h-11l-14 8-25 15-32 18-6 4 1 4h2l2 3 4 1v2l8-1 6 3 10 2 33 11 15 10 6 9 5 14 1 19-5 13-5 8-7 8-11 8-12 6h-4v-2h-6l-2 2-5-1-5-2-1-2-4 2h-3v-2l-6-1v-3h-3l-3 3h-2l-1-2-4-2v-2l-5-1-1 3-4-1-3-1-1-3-2-1-1 3-5-1v-3h-3l-1-2h-3l-1 2-4-1-2 1v-3h-3v-3l-4 1-4 2-2-3-4-1v-2l-3 1h-2l-4 1-1-2h-3v-3h-2l-1 2-4-2-5-2-4-3-1 3h-3l-1-3-2 2v-2h-2v-3h-2v2h-2l-1-2-2 3h-2l-1-3-2 1-2-2 1-2h-3v2h-2v-2l-6-1-9-3v2h-5l-1-1h-6l-20 10-18 11-15 9-21 12-25 15-14 7 2 4 7 8 10 6 7 2 15 10 14 8 8 4 10 7 9 6 3-1 10 8 7 3 6 3h30l7-3 9-3 6-1h3l3-1 1-2 10-1 2-4 8 2 3-1 2-4 6 1h4 2l2-5 10 2 4-5 4 1h3 2l2-5 7 2h2l3-3 1-2 7 1h4l3-4 10 1 4-4h29l9 4 10 5 8 8 8 15 1 3 1 25-3 10-7 9-11 8-12 7-14 5-10 3-4 1-3-1-7 4h-3l1-4 21-7 13-6 13-8h2l1-3h3l1-3 7-6 4-8 1-3v-15l-5-15-3-5v-2l-5-2v-2l-6-2-10-5-9-3h-9l-15 4-13 3-6 2-22 6-15 5-12 2-15 4-10 3-16 5-9 2-13 2-14 2h-13l-12-4-14-8-7-5-14-7-7-5-7-3v-2l-5-1-12-7-7-3v-2l-5-2-8-5-3-2v-2l-5-1-4-4-12-9 1-4 12-6h2l2-4 10-7 11-6 8-5h2v-2l8-4h2l1-2 12-7h2l1-2 15-8 15-9 14-7 7-2h10l19 4 8 2 21 5 18 5 12 3 33 9 21 6 26 6h18l10-6 5-4 5-6 3-3h2v-2h2l2-9 2-6v-14l-3-11-6-7-9-6-2-1v-2l-5-2-9-4-13-5-10-2-3-2-8-1-5-2-13-4-16-5 1-5 11-6 8-5h2v-2h3v-2l7-3 1-2 12-6 19-11 9-6 24-12h10l25 5 16 5 14 3 18 5 25 7 21 5 14 5 11 2 18 5 16 4 17 4 8 3 24 6 15 4 13 4 10 2 15 4 9 2 13 1h9l10-5 6-5 5-6h2v-3l3-3 1-2h2l1-9 1-1v-9l-2-10-4-6v-2l-3-1v-2h-2l-7-8-5-5-3-1v-2l-10-3-13-3-14-5-14-3-12-3-15-5-8-2-1-1-13-2-6-2-14-4-8-2v-2l-3 1-10-2-1-1-14-2-9-3-4-2-9-2-3-2-8-2-9-3-10-3-2-4 5-5 16-8h2v-2l9-5h2v-2l9-3v-2l6-3h2v-2h3v-2l6-3h2v-2l8-4 11-6 13-4 6-1h14l23 4 15 4 10 2 9 3 42 12 10 2 18 5 12 3 20 3h11l11-6 4-3h2l2-4 7-8 4-10 1-9v-13l-5-12-3-2v-2l-5-2-6-4v-2l-4-1-8-4-14-5-11-3-2-1-13-2-9-3v-2l-7-1-12-4-2-2 1-4 4-3 6-3 15-11 9-5 4-1v-2h2v-2l12-6 6-4 6-3 15-9 8-4 3-3 6-3 5-5 4-5h2l3-9 4-15-2-14-2-4-2-5-6-8v-2l-4-1-5-3-4-1-5-2-13-2-13 2-12 5-5 2-1 2-4 2h-3v2l-5 2-6 4h-3v2l-9 5-5 3-23 13-10 5-14 8-7 1-1-1 1-10 3-12 2-12 2-10 6-22 3-17v-9l-1-6h-3l-3-9-1-4-5-2-2-4-5-2v-2l-6-1-8-4h-9l-8 2-12 4-5 4h-2v2h-2l-7 14-5 16-3 13-5 17-4 15-3 9-3 12-4 15-6 25-5 16-4 14-5 11h-2l-2 4-2 3h-2l-1 3-11 7-2 2h-4v2l-13 7-7 5-5 2-24 14-16 8-7 3-5-1v-7l4-20 3-13 5-17 2-12 3-10 1-7 3-11 6-21 3-9 2-10 5-17 2-10 3-12 5-16 2-7 3-13v-12l-4-8-6-8-8-9-4-5-6-1-3-3h-11l-10 2-11 3-3 3h-2l-1 4-6 3-1 4-3 3-4 7-1 6-3 11-3 12-3 9-4 15-2 5-3 14-3 12-4 15-3 12-4 15-4 13-5 21-4 14-5 17-2 10-8 31-3 11-1 1-3 15-7 21-7 14-7 8-5 5-5 4-6 3-15 8h-3v2l-4 2h-3v2l-10 5-4 3-11 6-21 11h-5l-2-5 2-10 2-5 4-20 4-17 3-11 2-7v-17l-5-13-4-6-2-1v-2l-5-1-2-4-18-6h-9l-13 3-9 6-6 5-7 11-7 26-5 18-3 9-3 14-4 11-2 9-5 18-3 13-2 10-3 11-2 6-4 13-5 8-8 8-14 7-4 4-6 2-10 6-8 6-12 5-4 3h-2l-1 2-4 2-5 3-11 6-3 1v2l-16 8-9 6-8 4-5-1-1-1v-136l2-9 6-11 6-7 4-4h2v-2l5-5h2v-2l6-5h2l2-4 4-5h2l2-4h2l2-4 7-8 3-3h2l2-4 8-8h2l2-4 3-3h2v-2l7-5 5-5 7-8h2l1-3h2l2-4 9-8 5-6 5-11 3-8 3-12-1-8h-2l-3-10-4-4v-2l-4-2v-2l-5-2-6-3-6-5h-17l-12 3-8 5h-2l-2 4-2 1-5 5h-2v2h-3l-2 4-5 5h-2v2l-6 5-5 5-5 4-9 9h-2l-2 4-4 3-4-1-1-1-1-31v-73l2-9 7-11 3-4h2l2-4 7-7h2l1-3h2l1-3 4-4h2l1-3h2l2-4h2l2-4 10-10h2l2-4 13-13h2l2-4h2v-2l5-5h2l1-3h2l2-4h2l1-3h2l2-4 4-4h2v-2l7-6 4-4h2l2-4h2l1-3 8-7 8-9 7-8 4-5 6-5 10-10h2l1-3 6-4 7-8h2l2-5 3-1v-2l4-3h2l2-4 8-7 3-5h2v-2l5-5h2l2-4 7-10 4-9 2-9-1-11-4-11 1-3-4-2-5-5-6-5v-2l-8-1-3-1v-2h-20l-7 2-8 3-8 8h-2l-2 4-7 6-7 8-9 10-4 4h-2l-2 4-12 11-5 4h-2l-1 3h-2l-2 4-9 10-13 13-7 8-6 6h-2l-1 3h-3l-1 3-5 4-13 13-8 7h-2v2l-8 7-10 9-4 3-4-2-1-104 3-10 4-7h2l3-6h2l2-4 2-3h2l2-4h2l2-4h2l1-3h2l1-3 4-4h2l2-4h2l1-3h2l2-4 3-3h2l2-4h2l2-4 3-3h2l1-3h2l2-4h2l1-3 5-4 10-10 3-4h2l1-3h2l2-4h2l1-3h2v-2h2v-2h2l1-3h2l2-4h2l2-4 8-8 4-5 3-8 3-14-1-8-4-9-2-2-2-6-10-10-4-2v-2l-10-1h-20l-6 2h-2l-1 2-5 2v2l-4 1v3l-7 4-5 6-8 7-14 14-3 1-13 13-7 3-2-1-1-18v-99l-4-12-3-4v-3h-2v-2l-4-2v-2l-10-3-1-2 1-2-5-1-5-4h-13l-16 4-6 4-7 6-3 4h-2l-1 5h-2l-2 8-1 14-1 29-1 81-3 1-5-2-11-9-5-3-5-5-8-9v-2l-4-2v-2l-4-2-6-5-5-6-6-4v-2l-5-1-4-5-9-2-14-1-9 3-3 2-6 2-5 4-5 5-3 2-2 5h-2l-2 11v11l1 10 5 13 11 12 2 1v2l4 2 94 94 7 8 4 7 1 6v103h-4l-16-17-128-128-2-1v-2l-4-2-9-5-7-2-9-2h-13l4-1 2-4h7l3 2 9 2 10 5 14 10 48 48 5 6 8 7 73 73 5 3v-99l-7-9-4-4v-2h-2l-7-8-8-7v-2l-4-2-84-84-6-8-7-14v-7l-1-4-3-2 2-5 2-3v-8l9-17 7-7 8-5 7-3h6l1-3h6l3 1h5v-2l14 4 7 4 11 8 38 38 8 5v-105l6-18 10-13 9-8 8-4z" fill="#5DB1F5"/>
<path transform="translate(1068,1109)" d="m0 0 11 4 33 18 8 4 12 7 12 6 9 6 9 5 11 7 21 14 5 11 6 21 8 32 7 24 4 16 3 13 2 6 4 14 3 9 4 14 7 14 5 8 2 1v3l6 2 9 5 12 1h12l6-2 10-6 8-7 6-11 1-4v-21l-3-18-7-29-6-22v-5l4-1 10 6 17 9 10 6 12 6 23 13 18 12 7 8 4 10 7 25 2 6 2 12 5 15 3 14 5 19v5h2l3 14 1 5 5 17 2 6 3 11 7 28 4 11 2 12 2 7 3 8 3 15 3 9 2 9 4 15 3 10 5 15 6 10 4 4v2h2v2l7 2 7 3 11 1 13 1 5-1v-2h2v-2h3l1-2 6-3 9-10 5-10 1-9 1-13-5-21-3-7-3-14-6-23-3-9-4-17-2-7-5-21-2-4-2-9-2-6-2-11-4-15-6-24-4-14 1-5 6 1 15 8 11 6 13 7 14 8 11 6 7 5 9 5 9 7 7 11 5 14 5 21 11 44 5 15 5 21 2 4 3 12 4 14 3 12 4 9 5 5 6 7 7 3 4 3 19 2 3 1v-2h5l5-3h2l1-2 8-5 5-5 5-7 2-4 2-10v-17l-3-16-3-11-3-13-6-23-2-9 2-3 5 2 16 8 23 13 5 3 11 7 3 1v2l4 1 4 3 9 5 14 8 11 5 21 2 9-3 4-1v-2l7-4 8-8 4-5 3-12 1-13-1-12h-2v-3h-2l-2-4-8-7-2-4-4-1-1-2-9-4-10-5v-2l-5-1-7-5-5-2v-2l-5-1-1-2-6-2v-2l-7-2-14-7-7-4v-2l-4-1-5-5-8-6 1-5 13-4 10-3 11-3 12-4 10-2 4-2h3v-2l6-1 10-7 8-6 7-8 3-7 2-9v-9l-4-14v-2h-2l-3-5-7-6-10-5-3-3-18-1-14 1-4 2-9 2-3 2-16 4-8 3-12 2-11 3-7 2-18 5-10 3-5 1-11 3-8 3-5 2-14 2-12 1-15-3-15-8-7-4-8-6-17-8-8-5-6-4-14-10v-2l-4-2-5-4 1-5 14-4 12-3 12-4 4-1 19-6 10-2 13-4 5-2 9-2 7-2 10-2 7-2h5v-2l6-1 6-2 4-1 9-1v-2l16-4 11-2 4-2 9-2 10-3v-2l10-4 3-3h2v-2l7-6 6-10 2-10v-16l-3-9-7-9-11-8v-2l-13-1-3-1h-9l-16 3-1 1-10 1-13 4h-4v2l-18 3-9 2-5 2-8 2-14 4-6 2-8 3-9 1-3 2-13 3-11 3-5 2-9 1-6 2-12 2-15 5-14 4-18 4-16 4-8 3-5 2-12 2-9 3-13 3h-17l-28-14-8-5-16-8-14-8-12-7v-2l-4-2-8-6-3-2 1-4 5-3 8-2h9l9-2-3 3-9 2-5 1 1 6 5 5 11 7 31 16 11 7 15 8 11 5 5-1 4-3 9 1 6-5h5l3 2 3-1 2-3 9-1h2l2-4 9 1 3-1 3-4 9 2h2l2-5h12l4-4h6v-2l6-1 4 1 4-1 3-3h7 3 2l2-4h6l3 1 3-3 11-2 2-3 8 1 3-1 2-3h10l7-4 7-1 2-2 9-1 3-3h5l1 1h5l4-4h6l3 1 5-5h6l3 1 5-4 9-1 2-3 9 1 5-4h12l1-3 5-1 15 1h10l12 5 8 7 6 7 8 16 2 5v13l-4 14-5 10-9 9-17 9-5 3-6 2-5-3-2 4-4 2h-3v-2h-3l-1 3-6 4-5-3-3-1-1 3h-3l-2 3-8-1v2h-2v2l-4 1-2-1v-2h-2l-3 3-1-1-2 4-4-1h-3l-1 2h-2l-2 3-5-1v-2l-5 3h-2l-1 3-4 1-1-3-9 2-5 4-3-2-5 3-3 3-5-3h-2l-2 3h-3l-1 3-5-2-2-1-4 4-5 2-3-2-1 3-5 1v2l-7-2-3 3-11 3-3 1 2 7 15 10 14 9 9 5 9 6 9 5 5 4 15 5 2 1h12l3 1 23-8 6-1 1-2h9l3-1 2-3h9l3-4 11 1 6-4h6l2 1 1-5 7 1h3 3l1-4h4l6 1 1-5h3l6 3v-2l3-1 2-4 9 2 5-5 11 1 3-4 11 1 6-1 8 3 11 4 9 7 8 9 5 10 1 9 2 4v11l-4 13-5 8-6 7-7 5-5 3-4 3-7-1-1 3h-3v2l-3 1-2-2-4 1-6 4-6-2-3 3-7 2-6 2-16 6 2 4 13 8 17 10 20 11 8 5 11 6 13 8 5 3 11 13 4 7 5 10 1 5-2 13-6 16-7 11-8 6-12 6-19 1-4-1-4 1-9-3-10-4-16-10-16-9-15-10-17-9-13-8-4-2v15l3 6 2 3-1 1v7l4 5-1 8 5 7-2 5 1 6 4 5-1 9 1 8-3 5-3 10-6 9-6 5-6 3-6 5-5-1-1 2-4 2h-6l-3-1h-4l-7 1-5-2v-2h-7l-8-7-11-11-5-11-7-22-6-25-4-13-3-11-4-15-2-10-6-19-2-9-2-5-1-8-2-6-2-9-8-14-9-6-13-8-24-12-7-5-4-4-16-8-11-5 2 15 4 12v2l3 1-2 2 1 7 4 6-2 2 3 8 2 4 1 6 1 3h2v2h-2l2 8 4 4v2h-2v5l3 5v2h2v2h-2l1 9h2l3 3v2l-3 3 2 6h2v3h2v2h-2l1 6 4 6 1 8 3 4-2 3 3 7 2 4 1 6 1 3h2v2h-2l2 9 4 6-3 1 2 5-1 4 3 6 2 5-4 4-1 5 1 5-2 2-3 7-7 8-9 6-7 6-6-1-2 3-6 2-3-2v2h-2l-1-2-5 2-8-2v-3l-7 1-7-5v-2l-5-1-6-7-1-4h-2l-7-14-2-11-3-9-2-5-2-10-2-7-2-8-5-16-2-9-5-13v-9l-4-11-4-14-2-4-1-10-3-5v-9l-4-11-4-17-2-5-5-22-5-16-3-12-5-14v-8l-3-8-2-11-5-13-5-8-11-8-20-11-13-8-17-10-13-6-12-2 4 13 1 8 6 11v12l3 3v42l-8 15-14 10-15 5-7 2-6-3v2l-5 1-7-4-6-1-12-8-6-8-4-6-7-21-11-43-8-29-4-15-6-22-6-24-5-14-5-6-19-11-25-15-18-10-17-10-18-10-15-7h-3l-1 3-1 30v83l2 5 2 2v4h-2l3 10 14 14 6 7 3 5 8 6 9 9 7 8 12 13 9 9 10 8v2l4 2v2l3 1v2l4 2 13 13 9 11 8 8 9 17v22l-2 3-2 8-6 9-5 5-7 5-5 5h-7l-5 4h-21l-14-7-10-8-13-11-6-7-4-6-2-1v-2l-4-2-13-8-6-2-1 19v25l1 44 4 12 7 9 189 189 8 7 9 10 8 14 5 15 1 7-5 16-8 12-10 10-10 5-9 3-7 1h-3l-7-1-3-2-9-2-16-10-10-10-8-7-69-69v-2l-4-2-3-3v-2l-3-1-7-8-26-26-8-6-6-1-1 47v38l2 8 3 9 8 7v2l4 2 91 91v2l3 1 7 8 9 10 5 15 1 2v18l-2 3-3 10-8 11-5 5-8 5-8 4-29 1-16-8-13-12-31-31-9-3-1 40-1 72-4 10-9 10-8 7-12 6-10 3h-9l-5-2v-2l-8 1-9-5-9-7-6-9-6-14-3-8v-103l-10 5-16 15-10 10-6 8-16 11-11 5-6 1h-11-3l-8-1-2-2-8-2-8-7-9-9-6-11v-7l-1-4-3-1 1-5 3-3-1-11 6-11 7-8 6-9 20-20h2l2-4 17-17h2l2-4 18-18 4-3h4l2-5 4-5h2l2-4 11-12 13-13 6-9 1-99-11 8-67 67-4 5-4 4h-2l-2 4-3 3h-2l-2 4-3 3h-2l-1 3-6 5-5 6h-2l-2 4h-2l-1 3h-2l-2 4-17 17-8 7-10 6-7 1-7 4-3-2-6 1-5 1-6-4-9-2-9-6-3-4v-4l-4-2-7-10-3-10v-4l-4-2 2-5h2l1-9 2-4 2-7 5-7 4-7 12-13 198-198 4-7 1-98-7 4-10 10-5 4-5 5-4 5h-2l-2 4-12 12-10 8-13 6h-25l-14-7-10-9-8-9-3-7v-11h1l2 10 3 7 6 8 10 8 10 5 7 2h17l9-2 9-5 12-11 16-17 12-13 11-11 4-5 4 1 1 2 1 14 1 64v29l-2 7-5 4-7 8-9 10-9 11-9 10-18 18h-2v2l-8 7-8 8h-2l-2 4-4 2-2 4-12 11-18 18-11 12-4 5-8 7-4 2v2l-5 5-3 1v2l-8 7-15 14-4 2-2 4h-2l-2 4-10 10-7 6h-2v2l-8 7-3 3-3 6-5 5-3 7-2 13-1 7 1 9 3 7h2l2 5h2l6 7 6 4 8 3 8 1h15l6-3 9-5 4-5 6-5 5-6 6-5 24-24h2l1-3h2l2-4h2l1-3h2l2-4h2l1-3h2l2-4 42-42h2l1-3h2l2-4h2l2-4h2l1-3h2l2-4h2l1-3 8-7 6-4 3-1v-2l6-4h2v-2l4-1 2 2 1 19v82l-2 13-6 8-10 11-6 7h-2l-2 4-9 10-3 4h-2l-1 3h-2v2l-5 2-1 3-8 7h-2l-2 4-3 4h-2l-2 4-10 9h-2v2l-5 5h-2l-1 3h-2l-2 4h-2l-1 3-5 5-9 11-3 3h-2l-2 4-4 5-4 7-2 1-2 11v19l3 6 12 13 8 5 11 1 12 2 13-5 11-8 5-4h2v-2l8-7 10-9 1-2h2v-2l11-9 10-9 6-5 4 1 1 3v102l1 16 4 11 4 5 6 4 2 4 11 4 3 2h25l9-3v-2h3v-2l7-4 3-3 4-8 3-5 2-7 1-111 1-6 4-1 11 9 9 8 7 8 21 21 15 10 19 5h8l6-2h4v-2h2v-2l8-4 9-9 5-11 2-7 1-13-3-6v-3h-2l-6-8-9-9-5-4-7-8-7-6-8-7-13-13-7-8-11-12-5-5-3-2v-2l-4-2-7-7-8-7-9-10-7-10-7-11-3-5-1-13-1-62 1-24 2-14 3-1 4 3v2h2l7 8 8 7v2h2l7 8 9 9 8 7 42 42v2l4 2 53 53 10 7 10 5 5 2 20 1 12-6 6-5 4-6 5-5 3-6 2-10v-10l-2-7-5-8-7-8v-2l-4-2-5-6-4-3v-2h-2l-7-8-9-9-8-7-13-12-8-7-9-9v-2l-4-2-6-7v-2l-4-2v-2l-4-2-11-11-7-6v-2h-2l-7-8-12-12v-2l-3-1v-2l-3-1-4-4v-2l-3-1-7-8-4-3v-2l-4-2-3-3v-2l-3-1-7-9-7-6-18-18v-2l-4-2-10-10-7-17-2-19v-67l2-25 4-2 17 17 8 7 5 5 6 8 14 11 10 9 13 5 13 2 10-1 7-4h2v-2h2v-2l8-5h2l2-5 5-9 3-14v-6l-4-11-5-5-7-8-5-5-3-5-4-4-3-2-6-5-7-8-10-9-3-2v-2l-4-2v-2l-4-2-15-14-7-9v-2l-3-1v-3l-4-2-11-9-7-8-3-3v-2l-4-1-7-9-2-3-2-10-1-1-2-28v-48l1-55 1-9z" fill="#5CB0F5"/>
<path transform="translate(790,956)" d="m0 0h14l10 3 6 3 20 11 12 7 18 10 14 9 17 10 15 9 10 7v5l-5 4-15 9-4 1v2l-9 6-1 2-6 3-4 1v2l-13 7-12 7-7 2v2l-6 4-7 3-11 7h-4v2l-11 6-11 2h-9l-19-4-6-2-8-2-1-1-13-2-9-3-5-2-11-2-5-2-9-1-3-2-13-3-11-2-1-3h-8l-10-3-7-1-3-2-16-2h-16l-10 4-7 2v3l-7 6-6 10h-2v16l1 15 4 7 6 5v2l5 2 5 4 14 5 25 7 24 8 16 5 2 2-1 4-11 7-7 5-5 3-4 3-11 6-10 5-9 6-14 8-9 6-15 7h-10l-12-2-15-4-18-5-17-5-13-4v-2h-10l-5-2v-2l-3 1-10-2v-2h-6l-6-3-11-1-2-1v-2h-9l-19-5v-2h-7l-9-3-8-2-1-1-12-2-4-2-10-2-1-3-6 1v-2l-17-3-2-2-9-1-4-1v-2l-7-1-5-2-9-2-16-4-16-3-4 2-13 1-1 3-3-1v2l-10 7h-2l-2 5-5 6-2 5-1 1v23l2 8v2h2l5 6 7 8 7 4 11 4 16 4 7 2 9 2 11 3 23 6 10 3 10 2 18 5 25 7 30 8 25 8 13 4 4 3-1 5-15 9-10 7-12 7-6 3-12 7-5 3-13 9-13 6-8 2h-15l-17-3-12-3-19-5-1-1-10-2-6-2-7-3-13-2-13-3-20-6-6-2-1-1-12-2-5-2-12-1-8-2h-8l-13 4-7 3-1 3-6 2-1 5-4 6-3 10v18l3 10 7 8 4 5 17 8 9 3 13 3 10 4 19 5 16 5 3 3-1 5-18 12-10 5-1 2-7 3-14 8-10 6-8 4-11 7-4 1-6 3-11 8-3 1v3l-3 2-4 8-2 1-2 5-1 5v20l4 9 6 8 9 8 7 3 12 2h18l2 1v-2l6-2v-2l7-3h3l1-3 6-3 2-2 6-2 15-9 7-5 16-8 8-6 21-10 4-2h5l-1 9-4 17-4 20-4 17-1 2-1 9-3 10v7l2 10 3 7 6 7 3 2v2l6 2 7 4h6l2 1h19l11-6 5-6 6-5 5-10 3-9 2-9 2-6 2-9 3-10 4-15 3-11 3-14h2l1-11 2-4 5-21 2-5 2-10 5-16 7-16 9-7 11-6 6-4 7-4 8-5 14-7 7-4 19-10 13-7h5l1 1v8l-4 23-4 15-5 18-4 15-4 17-6 20-5 19-3 11-1 1-2 10-5 21-6 25-2 10v9l2 11 3 6 4 3v2l3 1 4 4 11 5 9 2h13l10-4 9-5h2v-3l6-5 4-7 5-17 4-15 4-19 2-3 2-11 4-13 1-1 2-11 3-9 4-17 2-5 6-24 2-7 7-26 3-12 3-11 3-14 4-13 4-14 3-11 4-16 3-7 1-7 6-16 5-6 8-6 6-3 9-5 11-7 9-5h2v-2l13-5 10-7 13-6 11-6h5l-1 13-6 25-4 18-4 15-1 6-1 11 2 15h2l2 6 4 1v2h2l5 5 6 5 10 3 17 1 10-4 8-6 7-8 6-9 5-17 2-7 4-16 4-12 7-27 4-15 5-18 2-7 3-11 3-13 3-8 4-9 7-9 6-5h2v-2l10-5 9-6 11-6 14-8 4-1v-2l9-5h2v-2l4-2h3l1-2 2 1v-2l30-15 6-1 8-4h2l1 10-1 125-2 8-8 11-24 24h-2l-2 4-7 6-7 8-17 17h-2l-1 3h-2l-2 4-38 38-7 8-5 5-2 3v-5l9-10 110-110 6-9v-133l-12 3-22 12-14 8-15 10-26 15-17 9-9 8-3 3-6 13-1 5-3 4v5 4l-3 3-1 10-3 4-1 6 3 1-3 7h-2l-1 10-4 2 1 6 1 3-2 4h-2l-1 3 2 1-3 6-3 1 1 2v7l-4 3v5l2 1-2 5-3 2-1 6h2l-2 6h-2v11l-1 2h-2l-1 4v4l-5 12-6 9-9 9-10 6-12 4h-12l-8-3-13-5-9-7-6-8-5-10-3-12-2-1v-7l4-2v-9-3l3-4 1-7-1-3 2-5h2v-9l2-4h2v-7l-1-3 4-8-3-5-6 1-8 6-16 8-9 6-16 8-18 11-11 8-2 4v5l-2 4-1 3h-2l2 8-2 2h-3l1 6-2 2v4l-4 2 3 10-4 1-1 4 1 2h-2v4h2v3l-3 2-2 6 1 6-3 1v6h-3l3 4-5 4v7l2 3h-4v4h-2l1 7 1 3h-4l1 4-3 1 3 9-4 2v5l-2 1 2 3h-4l1 4h-3l1 7 2 1v2h-3l-1 4h-2l1 7 1 2-3 1v5l-3 1 3 4-4 1 1 3-3 1 1 7 1 2-3 1-1 4h-2l1 6 2 1v2h-4v5h-2l2 9h-4l1 6h-3l2 5-3 1v2h-2l1 9 1 2-3 1-2 3 1 5 1 2-2 1v2h-2l-1 9 1 2-1 3-2 1-2 7 1 3-5 10-4 10-7 9-6 5-15 7h-30l-12-6-11-11-6-10-4-5v-28l3-5 1-6v-4l3-5 1-6h-2l4-8 1-5v-4l2-4 2-7h-2l1-3 2-1 1-8 3-7 2-6-2-1 4-8 1-4-1-3 3-3 1-7 5-12h-2l4-10v-9l3-6 4-14 4-16 2-6 1-15-16 8-16 9-15 8-6 4-14 7-10 7-6 4-4 6-2 4-1 7-2 4h-2v7h2v3h-4l1 4-2 2 1 8h-4l1 6-3 1v2h2l-2 5h-3l1 5-1 3h2v3h-4l1 3-2 2 2 9h-4v4h-2v5h2l-1 5h-3l1 7h-2l-1 2h2v2h-3l-1 9 2 1-2 4h-3l-1 4h2l-2 4v3h-2l-1 8 2 1-3 5-2 3-1 4 2 1-2 5-8 16-12 12-10 6-10 3-2 1h-13l-10-4-16-9-8-8-6-12-4-12 1-13 2-4v-8l4-6v-9l3-4 1-10 3-8-1-13-10 2-14 8-13 7-10 6-16 9-10 6-11 7-5 2h-3l-5 3-8-1-4 1h-4v-2l-2 2h-5v-2l-3 1-2-1v-2h-7l-8-7-7-7-9-17-1-10-4-2 1-4 3-3v-9l6-12 7-8 5-6 14-9 20-10 9-6 12-7 16-9 9-5 8-6 1-5h-2v-3l-3 2-8-1-3-3-4 1-6-3v-2l-3 1v-2l-6 2-6-4h-3l-7-2v-2l-8 1-13-7-10-9-7-10-3-7v-32l7-14 9-8 8-6 9-4h14l10 1 5-1 3 1v2l8 1 4-1 3 3h3v2l6-1 11 4 4 1v2l3-1 1 2 8-1 6 4 7-1 5 3 6 1 5 1v2h5l6 2 4 1v3l6-2 8 3v2l5-1 5 1 1 4 4-1 2 1 1-3 6 2v2l11 1h23l2-5 3-2h8l5-6 9-4 10-7 19-10h2v-2l13-7h2v-6l-2-2 1-2-6 3-2-2-5-1v-3h-2v2h-5l-4-3h-2l-1-3-2-1-2 4-5-1-3-4-2 1v-3l-4 3h-2l-1-2h-3l-2-3-1 2-6-1v-3h-5l-2-2-1 2-4-1-2 1-2-4-3 1-2-3-2 3-3-1v-2l-2 2-3-4-2 1-3-3-1 3-6-2-3-3-1 2-2-3-4 3-2-3h-3v-3l-5 2-2-3h-5l-3-3-2 3-3-1v-3h-2l-1 3-2-5h-2l-1 2-1-3h-2v3h-3v-4h-2l-1 3-2-4-2-1v3l-5-1v-3h-4v-2l-3 1v-2h-2v3l-4-1-4-2-1-2-3 1-13-5-11-6-7-8-5-8-6-17v-9l6-17 7-13 8-7 9-4 5-3 8 1 3-1 4-4 5 2v2l4 1h3l1-1 7 1 4 2 9 2v2h4v2l6-2 4 2 4 1v2l8-1 2 1v2l12 1 16 6h6l9 4h7l7 3 13 3 11 4 14 3 3 1 24 6 12 4 10 2 6 2h5l7 3 9 2 13 4 4 2 4-1 9 4 6 1 4 2v2l7-2 7 4h9l6 4 7-2 16-8 14-8 10-6 14-8 22-12 4-4 1-4-13-6-8-1-1-2-5-2-3 2-5-3-3-3-1 3-8-4v-2h-6l-2 2-9-5-8-4-10-9-6-11-4-12v-20l8-17 9-10 18-9h24l3 1v-2l7 2v2l4-1 2 2 7-1 1 3 10 1 1 2h3v3l6-2 4 1v2h4v2l9-2 2 3h3l1 2 8-1 1 3 11 1h3v2l10 1 4 2 1 4 7-3 3 1 4 4 9-1 1 3h4l2 2 1-1h6l5 3h23l16-8 10-7 12-6 13-8 19-11 22-12 15-10 5-3 1-2-6-2-11-7-29-15-18-12-12-7-16-9-22-11-7-3-1 3h-3v-3h-3v2l-8-1-4 3-4 2-3-2-4 1-7 5-2-3 5-1 2-4zm-134 204m179 70m-1 11m-1 2m-1 1 1 3z" fill="#5FB2F5"/>
<path transform="translate(970,1389)" d="m0 0 4 1 1 2 1 14 1 64v29l-2 7-5 4-7 8-9 10-9 11-9 10-18 18h-2v2l-8 7-8 8h-2l-2 4-4 2-2 4-12 11-18 18-11 12-4 5-8 7-4 2v2l-5 5-3 1v2l-8 7-15 14-4 2-2 4h-2l-2 4-10 10-7 6h-2v2l-8 7-3 3-3 6-5 5-3 7-2 13-1 7 1 9 3 7h2l2 5h2l6 7 6 4 8 3 8 1h15l6-3 9-5 4-5 6-5 5-6 6-5 24-24h2l1-3h2l2-4h2l1-3h2l2-4h2l1-3h2l2-4 42-42h2l1-3h2l2-4h2l2-4h2l1-3h2l2-4h2l1-3 8-7 6-4 3-1v-2l6-4h2v-2l4-1 2 2 1 19v82l-2 13-6 8-10 11-6 7h-2l-2 4-9 10-3 4h-2l-1 3h-2v2l-5 2-1 3-8 7h-2l-2 4-3 4h-2l-2 4-10 9h-2v2l-5 5h-2l-1 3h-2l-2 4h-2l-1 3-5 5-9 11-3 3h-2l-2 4-4 5-4 7-2 1-2 11v19l3 6 12 13 8 5 11 1 12 2 13-5 11-8 5-4h2v-2l8-7 10-9 1-2h2v-2l11-9 10-9 6-5 4 1 1 3v102l1 16 4 11 4 5 6 4 2 4 11 4 3 2h25l9-3v-2h3v-2l7-4 3-3 4-8 3-5 2-7 1-111 1-6 4-1 11 9 9 8 7 8 21 21 15 10 19 5h8l6-2h4v-2h2v-2l8-4 9-9 5-11 2-7 1-13-3-6v-3h-2l-6-8-9-9-5-4-7-8-7-6-8-7-13-13-7-8-11-12-5-5-3-2v-2l-4-2-7-7-8-7-9-10-7-10-7-11-3-5-1-13-1-62 1-24 2-14 3-1 4 3v2h2l7 8 8 7v2h2l7 8 9 9 8 7 42 42 3 5 33 33 7 8 18 18 6 5v2l-4-2-9-6-8-8-8-7-69-69v-2l-4-2-3-3v-2l-3-1-7-8-26-26-8-6-6-1-1 47v38l2 8 3 9 8 7v2l4 2 91 91v2l3 1 7 8 9 10 5 15 1 2v18l-2 3-3 10-8 11-5 5-8 5-8 4-29 1-16-8-13-12-31-31-9-3-1 40-1 72-4 10-9 10-8 7-12 6-10 3h-9l-5-2v-2l-8 1-9-5-9-7-6-9-6-14-3-8v-103l-10 5-16 15-10 10-6 8-16 11-11 5-6 1h-11-3l-8-1-2-2-8-2-8-7-9-9-6-11v-7l-1-4-3-1 1-5 3-3-1-11 6-11 7-8 6-9 20-20h2l2-4 17-17h2l2-4 18-18 4-3h4l2-5 4-5h2l2-4 11-12 13-13 6-9 1-99-11 8-67 67-4 5-4 4h-2l-2 4-3 3h-2l-2 4-3 3h-2l-1 3-6 5-5 6h-2l-2 4h-2l-1 3h-2l-2 4-17 17-8 7-10 6-7 1-7 4-3-2-6 1-5 1-6-4-9-2-9-6-3-4v-4l-4-2-7-10-3-10v-4l-4-2 2-5h2l1-9 2-4 2-7 5-7 4-7 12-13 198-198 4-7 1-98-7 4-10 10-5 4-5 5-4 5h-2l-2 4-12 12-10 8-13 6h-25l-14-7-10-9-8-9-3-7v-11h1l2 10 3 7 6 8 10 8 10 5 7 2h17l9-2 9-5 12-11 16-17 12-13 11-11z" fill="#55ADF5"/>
<path transform="translate(776,258)" d="m0 0 5 1-2 2-9 4-11 7-9 11-3 8-1 4v20l3 10 5 5 12 13 5 5v2l4 2 176 176 8 7 10 10 4 5v2h2l2 6v58l-1 53-5 1-10-7-4-4-10-6-6-7-8-10-6-7v-2h-2v-2l-4-2-9-9-7-3-1-2-10-2-14 2-14 5-6 4-8 9-2 5h-2l-1 8-1 3v20l5 10 15 16 15 15 8 7 62 62 4 6 4 2 9 10v2h2l5 7 2 8v86l-1 53-1 1h-7l-5-3-26-13-11-6-6-4-11-6-13-8-11-6-8-5-5-2v-2l-6-2-4-2v-3l-5-2-5-3-7-8-4-11-6-20-2-7-2-8-1-11-1-1-2-10-3-11-2-6-2-8-3-11-2-6v-8h-2l-3-15-2-4-3-14-2-5-3-5-8-11-9-9-2-1v-2l-6-1-9-5-9 1-13 3-10 5-6 5-3 4h-2l-1 4-3 6-2 9-1 5 2 8 1 13 2 6 5 23 8 25v8l-3 1-9-3-7-3-17-9-10-6-10-5-18-10-14-10-5-4-6-5v-4l-3-1-1-7h-2l-2-12-2-2-4-12-2-12-3-10-2-6-2-13-1-1v-5h-2l-4-20-3-13-3-9-3-13-2-5-3-14v-8l-3-9v-5l5 10 2 10 3 1-2 4 3 8 2 1v2h-2l4 12 1 4 2 7h2v2h-2l4 11 1 3h-2l5 12 3 10v3l3 9 3 10 1 4h2l-2 4 1 6 3 7 3 9 1 4 1 7 3 8 3 7 3 4 9 5 8 5 7 4 10 6 15 8 4 4 7 1 8 6 6 3 4 4h5l-1-10-3-8-1-9-2-6-1-8-2-4-1-9-3-5v-27l3-10 6-8 9-9 16-8 9-1h20l9 4 8 7 10 10 5 9 3 11 2 5-1 3 4 8 1 3h-2l3 9 2 4 1 6 1 3 3 1-3 4 4 8 2 1v2l-2 1 3 9 1 5 3 7 2 2-2 4 3 6v3l3 1-3 1 3 9 2 5 1 5 3 5-2 3 5 10-1 5 3 6 3 4 3 10 5 1 6 5 9 5 3 3 7 1 11 8 13 8 12 6 13 8 16 10 11 4 9 6 2 1-1-134-7-11-7-10-9-6-8-10-84-84-8-11-6-13-1-10-3-2 4-10 1-7 4-8 8-12 5-4 16-7h28l12 6 5 5 16 12 9 9 4 6 1 3 8 4 6 8 6 1v-98l-8-10-7-8-45-45-6-5v-2l-4-2-129-129-5-6-14-14-9-17v-25l4-12 6-8 11-11z" fill="#52ABF5"/>
<path transform="translate(500,420)" d="m0 0h22l8 2 10 5 6 7 9 12 6 17 2 10 4 13 2 4-1 3 4 9 1 2h-2l2 8 4 5-3 1 1 7-3-1-2-5-3-13-6-21-2-3-1-10-4-10-2-4-5-11-1-4-7-7v-2l-5-2-6-4-8-2h-11l-14 4-3-1v2h-2l-1 3-5 2-4 5h-2l-2 6h-2l-1 5-3 6-2 9 1 16 2 11 4 11 4 19 3 9 7 25v5l2 1 3 14 2 4 2 11 5 15 2 8 1 3-1 2h2l2 11 5 17 2 7 5 20v8l-1 1h-7l-9-4-17-8-28-17-10-6-7-4v-2l-5-1-7-4v-2l-4-2-6-8-5-10-5-20-2-4-4-16-2-9-2-12-3-8-3-9-2-10-3-10-2-5-6-24-7-23-4-10-4-6-3-3-3-1-4-4-11-4-2-2h-15l-8 3-8 2-11 8-1 2h-3l-1 9-3 8-1 2v17l3 21 5 17 6 21 1 5v9l-4 1-15-6-14-7-11-6-10-7-4-2v-2l-5-1-9-6-4-2v-2l-6-1-7-5-5-3-6-3v-2l-5-1-6-3h-12l-10 2-11 6-4 4h-2v3l-4 1v3l-3 1-2 5-1 1-1 8h-2v18l4 13 7 8 9 7 18 11 20 11 25 15 14 8 18 11 1 3-4 4-30 10-10 2-8 3-11 4-13 5-10 6-5 5h-2v2h-2l-2 6-4 7-1 10 1 14 4 10 8 7 1 3 4 2v2l4 1 9 3 5 1h19l9-2 13-3 23-6 10-3 9-1-1 3h-2l-1 2-2 2h-3v-2l-4 1-2 3h-2v2l-5-1-3-2-2 4-4 2-4-1-3-2v4h-3l-1 3-8-2h-2l-1 3-3 2h-6v-2l-6 2v-2h-3l-1 2-7-1h-10l-6 1-4-2-5-6-9-6-4-5-6-13v-33l5-10 14-14 7-3 5-6 5 2 4-1 4-3h9l2-4 9 1 4-4 6-1v2l5-1 2-3 10-2 1-3-5-5-22-13-21-11-8-5-15-9-12-7-11-8-5-6-7-15v-29l8-16 7-8 10-6 9-4 10-1h12l12 4 10 6 14 8 17 9 13 8 13 7 10 6 13 6-2-17-2-8-1-9h-2l-1-9-1-4-3-4 1-9-3-6-1-10 4-15 7-12 8-9 11-7 1-1h36l8 3 10 9 7 8 5 12 6 19 1 7 5 15 2 4h-2l4 12h2v2l-2 1 2 7 3 5 1 7 3 4h-2l1 7 2 5 3 1-2 2 1 7 4 6-2 1 2 8 2 2 1 7 3 5-1 4 5 14 5 10 8 7 22 12 8 5 15 9 19 11 10 4 2-6-2-12-3-14-5-15-1-8-2-5-3-12-4-13-1-5-4-11-1-5-2-6-1-7-2-5-2-10-2-6-2-9-2-7-3-7v-9l-3-7v-6l-4-9v-20l4-11 6-11 8-8 16-8z" fill="#54ACF5"/>
<path transform="translate(1068,1109)" d="m0 0 11 4 33 18 8 4 12 7 12 6 9 6 9 5 11 7 21 14 4 9-1 2-6-9v-2l-6-2-10-7-13-7-9-6-10-2-18-10-17-10-18-10-15-7h-3l-1 3-1 30v83l2 5 2 2v4h-2l3 10 14 14 6 7 3 5 8 6 9 9 7 8 12 13 9 9 10 8v2l4 2v2l3 1v2l4 2 13 13 9 11 8 8 9 17v22l-2 3-2 8-6 9-5 5-7 5-5 5h-7l-5 4h-21l-14-7-10-8-13-11-6-7-4-6-2-1v-2l-4-2-13-8-6-2-1 19v25l1 44 4 12 7 9 189 189 8 7 9 10 8 14 5 15 1 7-5 16-8 12-10 10-10 5-9 3-7 1h-3l-7-1-3-2-9-2-5-3-3-5-10-9-18-18-7-8-29-29h3l54 54 10 7 10 5 5 2 20 1 12-6 6-5 4-6 5-5 3-6 2-10v-10l-2-7-5-8-7-8v-2l-4-2-5-6-4-3v-2h-2l-7-8-9-9-8-7-13-12-8-7-9-9v-2l-4-2-6-7v-2l-4-2v-2l-4-2-11-11-7-6v-2h-2l-7-8-12-12v-2l-3-1v-2l-3-1-4-4v-2l-3-1-7-8-4-3v-2l-4-2-3-3v-2l-3-1-7-9-7-6-18-18v-2l-4-2-10-10-7-17-2-19v-67l2-25 4-2 17 17 8 7 5 5 6 8 14 11 10 9 13 5 13 2 10-1 7-4h2v-2h2v-2l8-5h2l2-5 5-9 3-14v-6l-4-11-5-5-7-8-5-5-3-5-4-4-3-2-6-5-7-8-10-9-3-2v-2l-4-2v-2l-4-2-15-14-7-9v-2l-3-1v-3l-4-2-11-9-7-8-3-3v-2l-4-1-7-9-2-3-2-10-1-1-2-28v-48l1-55 1-9z" fill="#56ADF5"/>
<path transform="translate(1147,1157)" d="m0 0h6l12 8 10 5 14 9 4 4 4 7 2 1 6 21 8 32 7 24 4 16 3 13 2 6 4 14 3 9 4 14 7 14 5 8 2 1v3l6 2 9 5 12 1h12l6-2 10-6 8-7 6-11 1-4v-21l-3-18-7-29-6-22v-5l4-1 10 6 17 9 10 6 12 6 23 13 18 12 7 8 4 10 7 25 2 6 2 12 5 15 3 14 5 19v5h2l3 14 1 5 5 17 2 6 3 11 7 28 4 11 2 12 2 7 3 8 3 15 3 9 2 9 4 15 3 10 5 15 6 10 4 4v2h2v2l7 2 7 3 11 1 13 1 5-1v-2h2v-2h3l1-2 6-3 9-10 5-10 1-9 1-13-5-21-3-7-3-14-6-23-3-9-4-17-2-7-5-21-2-4-2-9-2-6-2-11-1-7v-6l-3-10-7-27v-5l5 1 8 4 10 6 5 5-6-2-17-8 2 15 4 12v2l3 1-2 2 1 7 4 6-2 2 3 8 2 4 1 6 1 3h2v2h-2l2 8 4 4v2h-2v5l3 5v2h2v2h-2l1 9h2l3 3v2l-3 3 2 6h2v3h2v2h-2l1 6 4 6 1 8 3 4-2 3 3 7 2 4 1 6 1 3h2v2h-2l2 9 4 6-3 1 2 5-1 4 3 6 2 5-4 4-1 5 1 5-2 2-3 7-7 8-9 6-7 6-6-1-2 3-6 2-3-2v2h-2l-1-2-5 2-8-2v-3l-7 1-7-5v-2l-5-1-6-7-1-4h-2l-7-14-2-11-3-9-2-5-2-10-2-7-2-8-5-16-2-9-5-13v-9l-4-11-4-14-2-4-1-10-3-5v-9l-4-11-4-17-2-5-5-22-5-16-3-12-5-14v-8l-3-8-2-11-5-13-5-8-11-8-20-11-13-8-17-10-13-6-12-2 4 13 1 8 6 11v12l3 3v42l-8 15-14 10-15 5-7 2-6-3v2l-5 1-7-4-6-1-12-8-6-8-4-6-7-21-11-43-8-29-4-15-6-22-6-24-5-14-5-6-19-11-21-13z" fill="#64B4F6"/>
<path transform="translate(1748,1142)" d="m0 0 16 1h10l12 5 8 7 6 7 8 16 2 5v13l-4 14-5 10-9 9-17 9-5 3-6 2-5-3-2 4-4 2h-3v-2h-3l-1 3-6 4-5-3-3-1-1 3h-3l-2 3-8-1v2h-2v2l-4 1-2-1v-2h-2l-3 3-1-1-2 4-4-1h-3l-1 2h-2l-2 3-5-1v-2l-5 3h-2l-1 3-4 1-1-3-9 2-5 4-3-2-5 3-3 3-5-3h-2l-2 3h-3l-1 3-5-2-2-1-4 4-5 2-3-2-1 3-5 1v2l-7-2-3 3-11 3-3 1 2 7 24 16-2 1-9-5-12-7-14-7-1-4 7-3 12-3 6-4 10-3 4-1 19-6 10-2 13-4 5-2 9-2 7-2 10-2 7-2h5v-2l6-1 6-2 4-1 9-1v-2l16-4 11-2 4-2 9-2 10-3v-2l10-4 3-3h2v-2l7-6 6-10 2-10v-16l-3-9-7-9-11-8v-2l-13-1-3-1h-9l-16 3-1 1-10 1-13 4h-4v2l-18 3-9 2-5 2-8 2-14 4-6 2-8 3-9 1-3 2-13 3-11 3-5 2-9 1-6 2-12 2-15 5-14 4-18 4-16 4-8 3-5 2-12 2-9 3-13 3h-17l-28-14-8-5-16-8-14-8-12-7v-2l-4-2-8-6-3-2 1-4 5-3 8-2h9l9-2-3 3-9 2-5 1 1 6 5 5 11 7 31 16 11 7 15 8 11 5 5-1 4-3 9 1 6-5h5l3 2 3-1 2-3 9-1h2l2-4 9 1 3-1 3-4 9 2h2l2-5h12l4-4h6v-2l6-1 4 1 4-1 3-3h7 3 2l2-4h6l3 1 3-3 11-2 2-3 8 1 3-1 2-3h10l7-4 7-1 2-2 9-1 3-3h5l1 1h5l4-4h6l3 1 5-5h6l3 1 5-4 9-1 2-3 9 1 5-4h12l1-3z" fill="#5BB0F5"/>
<path transform="translate(1134,1018)" d="m0 0 2 1-11 6 2 4 7 8 10 6 7 2 15 10 14 8 8 4 10 7 9 6 3-1 10 8 7 3 6 3h30l7-3 9-3 6-1h3l3-1 1-2 10-1 2-4 8 2 3-1 2-4 6 1h4 2l2-5 10 2 4-5 4 1h3 2l2-5 7 2h2l3-3 1-2 7 1h4l3-4 10 1 4-4h29l9 4 10 5 8 8 8 15 1 3 1 25-3 10-7 9-11 8-12 7-14 5-10 3-4 1-3-1-7 4h-3l1-4 21-7 13-6 13-8h2l1-3h3l1-3 7-6 4-8 1-3v-15l-5-15-3-5v-2l-5-2v-2l-6-2-10-5-9-3h-9l-15 4-13 3-6 2-22 6-15 5-12 2-15 4-10 3-16 5-9 2-13 2-14 2h-13l-12-4-14-8-7-5-14-7-7-5-7-3v-2l-5-1-12-7-7-3v-2l-5-2-8-5-3-2v-2l-5-1-4-4-6-5-4-6 8-5z" fill="#5AAFF5"/>
<path transform="translate(364,709)" d="m0 0h15l15 6 11 7 11 6 8 5 11 6 13 8 20 12 5 4-1 4-2 2-13 5-19 6-22 5-11 3-5 2-9 1-7 3-7 1-6 2-19 5-1 1-10 2-4 2-13 2-13 4-22 7-13 3-12 5-7 4-5 4-4 5-3 2-2 4h-2l-2 4 1 5-1 3-1 15 2 10 4 6 9 10 4 4 9 2 3 1h29l17-4 22-6 20-5 13-2 1 3-2 2h-10l-2 5-5-1v-2l-5 1-3 1-4 4-5-2h-3l-5 5-5-1-2-1-1 3-3 3-5-1-3-1-4 3h-2l-1 3h-2v-2h-8l-8 4h-6l-6-4-7 1-11-6-10-9-6-8-3-8-1-9-2-3v-9l5-16 4-7 8-9 14-9 9-4h7l5-3 8-1 3-3h7l5-4 6 1v2l5-1v-2l4-1v-2l4 1 5-1 2-4h5l3 2 4-1 2-5 9 2 1-5 7 1v2h2v-2h4l1-5 9 2h3l2-5 7 1h3 2v-3l7-1h4l2-4 8 2 5-5h7l2 1 4-3 10-2 2-2 9-3-2-8-5-2-13-8-16-10-23-12-9-5-4-4h-28l-6 4-6-2-1 3-3-1-1 5-7-4v2l-5 1v3l-3 1-6-4-2 4h-3l-1 3-4-1-4-4 9-3 15-4 21-6 12-3z" fill="#55ADF5"/>
<path transform="translate(1593,1283)" d="m0 0m-3 1 3 1-8 3-11 3v4l5 2 16 8 11 7 9 3 11 7 14 8 8 6 15 5 2 1h12l3 1 23-8 6-1 1-2h9l3-1 2-3h9l3-4 11 1 6-4h6l2 1 1-5 7 1h3 3l1-4h4l6 1 1-5h3l6 3v-2l3-1 2-4 9 2 5-5 11 1 3-4 11 1 6-1 8 3 11 4 9 7 8 9 5 10 1 9 2 4v11l-4 13-5 8-6 7-7 5-5 3-4 3-7-1-1 3h-3v2l-3 1-2-2-4 1-6 4-6-2-3 3-7 2-6 2-16 6 2 4 3 3-7-1-7-5 4-4h2l1-3 13-4 11-3 12-4 10-2 4-2h3v-2l6-1 10-7 8-6 7-8 3-7 2-9v-9l-4-14v-2h-2l-3-5-7-6-10-5-3-3-18-1-14 1-4 2-9 2-3 2-16 4-8 3-12 2-11 3-7 2-18 5-10 3-5 1-11 3-8 3-5 2-14 2-12 1-15-3-15-8-7-4-8-6-17-8-8-5-6-4-14-10v-2l-4-2-5-4 1-5 14-4z" fill="#57AEF5"/>
<path transform="translate(588,573)" d="m0 0 5 10 2 10 3 1-2 4 3 8 2 1v2h-2l4 12 1 4 2 7h2v2h-2l4 11 1 3h-2l5 12 3 10v3l3 9 3 10 1 4h2l-2 4 1 6 3 7 3 9 1 4 1 7 3 8 3 7 3 4 9 5 8 5 7 4 10 6 15 8 4 4 7 1 8 6 6 3 4 4h5l-1-10-3-8-1-9-2-6-1-8-2-4-1-9-3-5v-27l3-10 6-8 9-9 16-8 9-1h20l9 4 8 7 10 10 5 9 3 11 2 5-1 3 4 8 1 3h-2l3 9 2 4 1 6 1 3 3 1-5 4-4-15v-3h-2l-4-9-3-14-2-5-3-5-8-11-9-9-2-1v-2l-6-1-9-5-9 1-13 3-10 5-6 5-3 4h-2l-1 4-3 6-2 9-1 5 2 8 1 13 2 6 5 23 8 25v8l-3 1-9-3-7-3-17-9-10-6-10-5-18-10-14-10-5-4-6-5v-4l-3-1-1-7h-2l-2-12-2-2-4-12-2-12-3-10-2-6-2-13-1-1v-5h-2l-4-20-3-13-3-9-3-13-2-5-3-14v-8l-3-9z" fill="#50AAF5"/>
<path transform="translate(576,832)" d="m0 0h13l13 4 20 11 8 5 9 5 20 12 16 10 7 4 4 4-1 4-24 7-30 10-7 2-6 3-9 2-10 7-6 5-2 4-4 4h-2l1 10-1 14 2 15h2l1 5 4 2 6 7 7 4 17 3h10l11-1 18-5 11-2 5-2 21-5 24-7 28-8h4l-2 4-3 4-4-2-4-1 1 3h-3v3l-4 1-5-4v2h-2v2h-3l-1 3-4-1-2-1v-2h-2v2h-2v2l-5 4-5-3-6 2-1 4-7-2-4 5h-5l-4-2-5 5-3 1-5-3-5 5-4 1-4-1-3 1v3l-6 1-5-2-7 4-3 1h-4l-8-2v-2h-8l-13-7-5-5-3-5-6-7-3-10-1-2v-19l6-18 6-9 9-7 12-6 6-2 3 2 4-1v-2l5-2h6l2-3h6 3l3-1 2-3 8 1 6-4 5-3-1-4-7-4-10-7-16-8-20-13-20-11-5-2-7 1h-9l-7-1-6 3-1 2-6-2-1 3-3 1-1 2-4-2h-3l-3 2h-3l-1 3-5-2-3-1v2h-3l-2 5-6-2-4 1v4l-3 1-4-3v-2l-2-1 9-2 8-3 20-5 16-5z" fill="#51ABF5"/>
<path transform="translate(970,1109)" d="m0 0h5l1 2 1 53v63l-1 27-5 9-8 9-7 9h-2l-2 4-10 12-5 4-5 5-3 1-2 4-7 6-2 3h-2v2l-9 9h-2l-2 4-4 5-23 23-11 9-11 11-6 11-2 10v12l2 8 4 7 5 5 4 3 3 1 3 3 9 4 8 1h12l9-3 9-6 6-5h2l2-4h2l2-4 3-3h2l1-3h2l2-4 13-13 9-7h2v-2l5-2-2 4-17 17-7 8-16 17-11 10-10 5-7 1h-17l-10-3-11-7-7-6-7-9-3-8v-8h-2v-2l-3-1v-6l2-3 4-13 1-3h2l1-4 3-1 2-4 15-16 31-31 4-5 8-7 21-21 6-7 8-7 19-19 7-11 1-6 1-135-12 6-2-1 9-6z" fill="#4FAAF5"/>
<path transform="translate(849,180)" d="m0 0 10 10v2l4 2 104 104 8 7 3 8v25l-1 37v22l-1 26-3 1-6-4-9-8-7-3-11-10-4-5-21-21-13-12-16-16v-2l-3-1v-2l-4-2-7-9-3-3v-2l-4-2-8-7-5-5-2-4-4-2-5-4v-2l-3-1-8-10-2-1v-2l-4-2-5-4v-2l-5-2-11-8v-2l-26 1-10 5-10 8-1 4h-3l-2 5-3 17v7l2 6 1 10-4-4-2-8v-20l3-11 9-10 5-5 11-7 6-2 16-1 15 3 8 5 6 4v2l4 2 136 136 7 8h2v-103l-2-8-5-7v-2l-4-2-7-8-89-89-2-1v-2l-4-2-10-11z" fill="#4FAAF5"/>
<path transform="translate(776,258)" d="m0 0 5 1-2 2-9 4-11 7-9 11-3 8-1 4v20l3 10 6 9 12 13 8 8 8 7 159 159v2h2l5 6 6 5 18 22 1 12v94l-1 3-5-2-15-15-3-4 5 1 5 4 4 6 6 1v-98l-8-10-7-8-45-45-6-5v-2l-4-2-129-129-5-6-14-14-9-17v-25l4-12 6-8 11-11z" fill="#FEFEFE"/>
<path transform="translate(842,167)" d="m0 0 2 3 4 9 8 11 8 7v2l4 2 94 94 7 8 4 7 1 6v103h-4l-16-17-128-128-2-1v-2l-4-2-9-5-7-2-9-2h-13l4-1 2-4h7l3 2 9 2 10 5 14 10 48 48 5 6 8 7 73 73 5 3v-99l-7-9-4-4v-2h-2l-7-8-8-7v-2l-4-2-84-84-6-8-7-14z" fill="#FEFEFE"/>
<path transform="translate(969,1392)" d="m0 0h3l1 9v95l-4 9-2 4-8 7-191 191-7 8-6 5-5 5 2-4 4-7 12-13 198-198 4-7 1-98-7 4-10 10-5 4-5 5-4 5h-2l-2 4-12 12-10 8-13 6h-25l-14-7-10-9-8-9-3-7v-11h1l2 10 3 7 6 8 10 8 10 5 7 2h17l9-2 9-5 12-11 16-17 12-13 12-12z" fill="#FEFEFE"/>
<path transform="translate(500,420)" d="m0 0h22l8 2 10 5 6 7 9 12 6 17 2 10 4 13 2 4-1 3 4 9 1 2h-2l2 8 4 5-3 1 1 7-3-1-2-5-3-13-6-21-2-3-1-10-4-10-2-4-5-11-1-4-7-7v-2l-5-2-6-4-8-2h-11l-14 4-3-1v2h-2l-1 3-5 2-4 5h-2l-2 6h-2l-1 5-3 6-2 9 1 16 2 11 4 11 3 15v8l11 42 2 5 3 12 4 13 3 13v5l-3-4-2-10-5-16-1-5-4-11-1-5-2-6-1-7-2-5-2-10-2-6-2-9-2-7-3-7v-9l-3-7v-6l-4-9v-20l4-11 6-11 8-8 16-8z" fill="#5FB1F5"/>
<path transform="translate(749,676)" d="m0 0h25l9 4 8 7 10 10 5 9 3 11 2 5-1 3 4 8 1 3h-2l3 9 2 4 1 6 1 3 3 1-5 4-4-15v-3h-2l-4-9-3-14-2-5-3-5-8-11-9-9-2-1v-2l-6-1-9-5-9 1-13 3-10 5-6 5-3 4h-2l-1 4-3 6-2 9-1 5 2 8 1 13 2 6 4 18v9l2 9 4 10v7l-6-2-5-4 5-1-1-10-3-8-1-9-2-6-1-8-2-4-1-9-3-5v-27l3-10 6-8 9-9 16-8z" fill="#55ADF5"/>
<path transform="translate(1230,258)" d="m0 0 6 1 1 2-9 3-8 6-4 2-2 4-8 7-7 8-82 82-8 7-33 33-4 5-4 1-1-1v-102l3-9 6-5h2l-2 4-5 7-1 29v69l7-4 139-139 10-6z" fill="#FEFEFE"/>
<path transform="translate(1069,1636)" d="m0 0 4 1 51 51 8 7v2l3 1 5 6 5 5 8 7v2l3 1 39 39 7 8 18 18 6 5v2l-4-2-9-6-8-8-8-7-69-69v-2l-4-2-3-3v-2l-3-1-7-8-26-26-8-6-6-1-1 47h-1l-1-13z" fill="#FEFEFE"/>
<path transform="translate(841,978)" d="m0 0 5 2 9 5 11 6 24 14 20 12 13 8 2 4-9 6-24 13-17 10-13 7-9 6-11 6-15 9-16 10-9 3h-9l-27-7-15-4-9-2 3-3 5-1 6 5 9-1 1 3h4l2 2 1-1h6l5 3h23l16-8 10-7 12-6 13-8 19-11 22-12 15-10 5-3 1-2-6-2-11-7-29-15-18-12-12-7-5-4z" fill="#FEFEFE"/>
<path transform="translate(1076,794)" d="m0 0v3l-5 10-1 21v109l15-4 20-12 17-10 28-16 24-14 13-9h2l2-5 4-8v-9l7-19 3-10 2-9 2-6h1l-1 8-5 19-4 15-4 16-5 9h-2l-2 4-9 6-10 5-10 6-52 30-16 9-10 6-6 4-5 1-2-2v-128l1-9z" fill="#FEFEFE"/>
<path transform="translate(971,1111)" d="m0 0h2l1 10-1 125-2 8-8 11-24 24h-2l-2 4-7 6-7 8-17 17h-2l-1 3h-2l-2 4-38 38-7 8-5 5-2 3v-5l9-10 110-110 6-9v-133l-12 3-20 11-2-1 11-7 9-5 12-7z" fill="#FEFEFE"/>
<path transform="translate(1699,1252)" d="m0 0h8l-1 5-2-1-2 4-4-1h-3l-1 2h-2l-2 3-5-1v-2l-5 3h-2l-1 3-4 1-1-3-9 2-5 4-3-2-5 3-3 3-5-3h-2l-2 3h-3l-1 3-5-2-2-1-4 4-5 2-3-2-1 3-5 1v2l-7-2-3 3-11 3-3 1 2 7 24 16-2 1-9-5-12-7-14-7-1-4 7-3 12-3 6-4 10-3 4-1 19-6 10-2 13-4 5-2 9-2 7-2 10-2 7-2h5v-2z" fill="#80C1F7"/>
<path transform="translate(790,956)" d="m0 0h14l10 3 6 3 20 11 12 7 18 10 14 9 17 10 15 9 10 7v5l-5 4-10 6-2-1 5-4 10-6-2-4-19-11-20-12-19-11-11-6-10-6h-6l-19-10-16-8-3-1-1 3h-3v-3h-3v2l-8-1-4 3-4 2-3-2-4 1-7 5-2-3 5-1 2-4z" fill="#52ABF5"/>
<path transform="translate(1007,17)" d="m0 0h24l10 3 11 6 8 8 8 14 2 7v111l5-3 14-14 8-7 13-13 14-11 5-3 2 1-11 8-49 49h-3l-1-78-1-38-2-10-4-8-9-10-10-6-9-3-14-1-13 2-11 6-7 6-5 6v-3l10-11 9-6z" fill="#FEFEFE"/>
<path transform="translate(974,51)" d="m0 0h1l-1 121-2 2-8-6-11-12-15-15v-2h-2l-7-8-10-9-9-6-8-3-4-1h-22l2-1 1-3h6l3 1h5v-2l14 4 7 4 11 8 38 38 8 5v-105z" fill="#FEFEFE"/>
<path transform="translate(322,1149)" d="m0 0 5 1 4 2 1 2 8-1 2 1v2l12 1 16 6h6l9 4h7l7 3 13 3 11 4 14 3 3 1 24 6 12 4 10 2 6 2h5l7 3 9 2 13 4 4 2 4-1 9 4 6 1 4 2v2l-10-2-23-6-34-9-55-15-13-3-21-6-31-8-14-4-34-9z" fill="#FEFEFE"/>
<path transform="translate(971,1637)" d="m0 0h2l1 3v62l-1 36-3 10-5 8-10 9-7 8-11 10h-2l-1 3-2-1 4-5h2l2-4 11-12 13-13 6-9 1-99-11 8-39 39v-3l15-15 2-3h2l2-4 24-24z" fill="#FEFEFE"/>
<path transform="translate(960,790)" d="m0 0 6 4 3 3 4 7 1 5v135l-3 1-10-5-14-9 2-1 11 4 9 6 2 1-1-134-7-11-3-4z" fill="#FEFEFE"/>
<path transform="translate(238,884)" d="m0 0 3 1 3 5 9 10 4 4 9 2 3 1h29l17-4 22-6 20-5 13-2 1 3-2 2h-10l-2 5-5-1v-2l-5 1-3 1-4 4-5-2h-3l-5 5-5-1-2-1-1 3-3 3-5-1-3-1-4 3h-2l-1 3h-2v-2h-8l-8 4h-6l-6-4-8-2-10-6-7-6-8-12z" fill="#61B2F5"/>
<path transform="translate(140,551)" d="m0 0h1l3 14 6 10 8 8 16 9 5 3 29 16 24 14 21 13 3 2v3l-16 5-7 1 2-4 10-2 1-3-5-5-22-13-21-11-8-5-15-9-12-7-11-8-5-6-7-15z" fill="#FEFEFE"/>
<path transform="translate(1068,1883)" d="m0 0 4 1 9 7 26 26 7 8 11 10 11 7 8 3v2l-6-1-14-7-13-12-31-31-9-3-1 40-1 72-2-3z" fill="#FEFEFE"/>
<path transform="translate(361,710)" d="m0 0m-3 1h21l12 6 4 3 7 3 10 6 4 5-5-2-22-11-5-5h-28l-6 4-6-2-1 3-3-1-1 5-7-4v2l-5 1v3l-3 1-6-4-2 4h-3l-1 3-4-1-4-4 9-3 15-4 21-6z" fill="#4FAAF5"/>
<path transform="translate(1078,1508)" d="m0 0 7 6 186 186 8 7 9 10 2 5-6-5-7-8-177-177-8-7-9-9-5-6z" fill="#FEFEFE"/>
<path transform="translate(752,965)" d="m0 0h4l-2 4-3 4-4-2-4-1 1 3h-3v3l-4 1-5-4v2h-2v2h-3l-1 3-4-1-2-1v-2h-2v2h-2v2l-5 4-5-3-6 2-1 4-7-2-4 5h-5l-4-2-5 5-3 1-5-3-5 5-4 1-4-2 1-3 10-3 10-2 5-2 21-5 24-7z" fill="#99CDF8"/>
<path transform="translate(971,1883)" d="m0 0h3l1 120-2-3-2-5v-103l-10 5-5 5h-2l2-4z" fill="#FEFEFE"/>
<path transform="translate(1481,460)" d="m0 0 1 4-2 9-6 23-5 18-3 12-2 7-7 28-7 26-8 29-9 31-2 9h-1v-11h2l2-11v-3l2-5 4-13v-6l3-5 1-9 3-9 3-6 1-7v-3l3-4 1-7v-4l3-7 1-4-2-1 3-1 2-10 3-9v-9h2l2-10 3-9 4-16 3-9z" fill="#FEFEFE"/>
<path transform="translate(1595,1416)" d="m0 0 7 1 9 6 5 5 5 7 3 7 3 11 2 10 6 21 5 21 8 30 4 16 7 24 3 10v7l-2-4-5-15-6-25-4-13-3-11-4-15-2-10-6-19-2-9-2-5-1-8-2-6-2-9-8-14-18-12z" fill="#FEFEFE"/>
<path transform="translate(1079,545)" d="m0 0v3l-8 13-1 22v74l6-4 10-8 8-6-2 4-16 16-4 5-5-1v-104l8-11z" fill="#FEFEFE"/>
<path transform="translate(1069,1733)" d="m0 0h1l2 8 3 9 8 7v2l4 2 91 91v2l3 1 7 8 9 10 1 5-2-1-3-5-2-4h-2l-7-8-109-109-4-7z" fill="#FEFEFE"/>
<path transform="translate(1147,1157)" d="m0 0h6l12 8 10 5 14 9 4 4 4 7 2 9 11 42 8 30 5 18v6l-2-3-8-29-4-15-6-22-6-24-5-14-5-6-19-11-21-13z" fill="#FEFEFE"/>
<path transform="translate(1413,716)" d="m0 0h1l-1 9-4 13-6 10-8 9-12 7-11 6-25 13-15 10-17 10h-5l1-8 3-8h1v9l11-5 19-9 13-8 15-8 14-7 10-9 7-10 6-15z" fill="#FEFEFE"/>
<path transform="translate(1838,500)" d="m0 0 4 1-14 6-20 12-12 6-16 10-27 15-11 7h-5l-1-3 5-17 2-1v14l9-3 39-22 18-11 14-8 11-5z" fill="#FEFEFE"/>
<path transform="translate(290,507)" d="m0 0h2l6 21 2 11 5 15v4l-6-1-14-8-11-7-34-19-15-9-1-2 6 2 19 10 13 8 13 7 10 6 13 6-2-17-2-8-1-9h-2l-1-9z" fill="#FEFEFE"/>
<path transform="translate(845,669)" d="m0 0 3 2 3 6 23 23 8 7 9 9 7 8 14 14 7 8 7 6 7 8 5 6-1 2-82-82-8-11z" fill="#FEFEFE"/>
<path transform="translate(926,1790)" d="m0 0 4 1-69 69-5 4-1 2-2-1 6-9 20-20h2l2-4 17-17h2l2-4 18-18z" fill="#FEFEFE"/>
<path transform="translate(1069,1112)" d="m0 0 5 1 23 12 21 12 5 4 7 3 16 10 1 3-6-2-21-12-24-14-21-10h-3l-1 3-1 30h-1l-1-29v-10z" fill="#FEFEFE"/>
<path transform="translate(613,848)" d="m0 0 7 1 7 4 26 15 18 11 10 7v3l-8 3-12 2 5-5 4-2-1-4-7-4-10-7-16-8-20-13z" fill="#FEFEFE"/>
<path transform="translate(588,573)" d="m0 0 5 10 2 10 3 1-2 4 3 8 2 1v2h-2l4 12 1 4 2 7h2v2h-2l4 11 1 3h-2l5 12 3 10v3l3 9 3 10 1 4h2l-2 4-2 2-8-30-6-21-7-27-1-7-3-1-3-7-3-14v-8l-3-9z" fill="#FEFEFE"/>
<path transform="translate(500,853)" d="m0 0h4l-2 5h-3l-1 3-5-2-3-2v2l-5 5-7-1-1 1h-2l-1 4-5-1-3-2-3 1v2l-4 4-4-2h-4l-5 2v3l-4-1-4-2-4 4h-2v2l-5-1-2-4 9-2 27-7 32-9z" fill="#A9D5F9"/>
<path transform="translate(424,738)" d="m0 0 6 1 18 10v2l5 2 17 10-4 4-8 3-13 3-8 2-6 1 4-4 10-2 2-2 9-3-2-8-5-2-13-8-12-8z" fill="#FEFEFE"/>
<path transform="translate(1538,621)" d="m0 0h1l2 9-3 2-3 11-5 17v12l6-1 22-12 12-8 4-4h2v2l5-1-2 2-9 5-41 24h-5l1-9 8-30z" fill="#FEFEFE"/>
<path transform="translate(1134,1018)" d="m0 0 2 1-11 6 2 4 7 8 10 6 7 2 15 10 14 8 8 4 10 7 5 5-6-2-5-4-11-6-10-6-14-8-20-11-10-6-9-5-2-3 8-5z" fill="#FEFEFE"/>
<path transform="translate(1794,636)" d="m0 0 2 4 5 4 7 4 7-1 8 4 7 1 27 9 8 3 5 4 1 3-5-2-9-5-20-6-16-4-19-5-15-5-1-4z" fill="#FEFEFE"/>
<path transform="translate(513,1376)" d="m0 0h3v7l-7 27-4 16-4 13-2 9h-1l-1-9 3-6 4-14 4-16 2-6 1-15-16 8-16 9-10 5-2-1 17-10 19-11z" fill="#FEFEFE"/>
<path transform="translate(290,1552)" d="m0 0 1 2-4 18v12l3 12 3 6 9 10 10 7 7 3 8 2h15l12-4 10-7 2 1-7 6-7 4-10 3-2 1h-13l-10-4-16-9-8-8-6-12-4-12 1-13 2-4v-8z" fill="#FEFEFE"/>
<path transform="translate(1637,781)" d="m0 0h5l2 3 7 1 4-1 2 3 9 1 4 1 6 3 6-1 5 3 16 4 16 5 5 2v2l-7-1-28-7-20-6-16-4-19-5z" fill="#FEFEFE"/>
<path transform="translate(767,676)" d="m0 0h7l9 4 8 7 10 10 5 9 3 11 2 5-1 3 4 8 1 3h-2l3 9 2 4 1 6 1 3 3 1-5 4-4-15v-3h-2l-4-9-3-14v-9l-4-11-6-8-7-7-13-8-8-2z" fill="#4FAAF5"/>
<path transform="translate(1839,1396)" d="m0 0m-3 1h3l-1 4-5 3-6-2-3 3-7 2-6 2-16 6 2 4 3 3-7-1-7-5 4-4h2l1-3 13-4 11-3 12-4z" fill="#69B6F6"/>
<path transform="translate(1368,882)" d="m0 0 3 1v3 2h2l2 3 4 1v2l8-1 6 3 10 2 33 11 6 4-2 1-7-4-30-8-20-5-21-6-2-4 4-3z" fill="#FEFEFE"/>
<path transform="translate(470,502)" d="m0 0 2 3 4 16 5 18 8 31 2 5 3 12 4 13 3 13v5l-3-4-2-10-5-16-1-5-4-11-1-5-2-6-1-7-2-5-2-10-2-6-2-9-2-7-3-7z" fill="#FEFEFE"/>
<path transform="translate(563,1573)" d="m0 0h1l2 7-1 3-2 1-2 7 1 3-5 10-4 10-7 9-6 5-15 7h-30l-12-6-11-11-2-5 5 5 9 8 5 3 8 3h29l12-6 5-4 7-9 6-11 6-23z" fill="#FEFEFE"/>
<path transform="translate(232,1426)" d="m0 0 2 1-14 9-11 6-13 8-11 6-26 16-13 13v-3l6-7 5-6 14-9 20-10 9-6 12-7 16-9z" fill="#F1F7FD"/>
<path transform="translate(370,890)" d="m0 0 1 3-2 2h-10l-2 5-5-1v-2l-5 1-3 1-4 4-5-2h-3l-5 5-5-1-2-1-1 3-3 3-5-1-2-4 23-7 25-6z" fill="#8BC7F8"/>
<path transform="translate(301,1498)" d="m0 0 4 1-5 21-3 9-2 10h-1v-10l3-8-1-13-10 2-14 8-6 2 3-3 20-12z" fill="#FEFEFE"/>
<path transform="translate(1634,1328)" d="m0 0 4 1 10 7 15 5 2 1h12l3 1 23-8 6-1 1-2h7l2 2-32 10-10 2h-11l-12-4-6-3-12-8z" fill="#FEFEFE"/>
<path transform="translate(554,838)" d="m0 0m-2 1h13l-4 4-6-2-1 3-3 1-1 2-4-2h-3l-3 2h-3l-1 3-5-2-3-1v2h-3l-2 5-6-2-4 1v4l-3 1-4-3v-2l-2-1 9-2 8-3 20-5z" fill="#82C2F7"/>
<path transform="translate(1388,1185)" d="m0 0 6 2 25 13 11 7 15 8 11 5 4 2h-7l-11-4-15-8-9-6-11-6-9-5-10-7z" fill="#FEFEFE"/>
<path transform="translate(1524,1375)" d="m0 0 5 1 8 4 10 6 5 5-6-2-17-8 2 15 4 12v2l3 1-2 2 1 7 4 6-4 2-2-5-2-8-7-27-2-8z" fill="#FEFEFE"/>
<path transform="translate(497,1448)" d="m0 0h1l-1 7-9 36-7 25-5 18-2 9-2-4 1-3v-4l2-4 2-7h-2l1-3 2-1 1-8 3-7 2-6-2-1 4-8 1-4-1-3 3-3 1-7 5-12h-2l2-5z" fill="#FEFEFE"/>
<path transform="translate(458,1286)" d="m0 0 10 3 1 3-22 13-24 14-19 11-3-1 5-4 7-3 10-7 19-10h2v-2l13-7h2v-6l-2-2z" fill="#FEFEFE"/>
<path transform="translate(679,1065)" d="m0 0h5l1 3h4v2l9-2 2 3h3l1 2 8-1 1 3 11 1h3v2l10 1 4 2 1 4-10-2-34-9-22-6z" fill="#FEFEFE"/>
<path transform="translate(1629,583)" d="m0 0 1 3-7 29-4 9-4 6-8 5-16 8-7 4-2-1 4-4 16-8 6-4 7-8 7-13 1-6-1-3h2l2-7v-7z" fill="#FEFEFE"/>
<path transform="translate(417,605)" d="m0 0 3 3 4 12 6 8 10 7 17 9 8 5 13 8-3 1-10-6-16-8-12-7-11-8v-2h-2l-4-7-3-10z" fill="#FEFEFE"/>
<path transform="translate(366,711)" d="m0 0h13l12 6 4 3 7 3 10 6 4 5-5-2-22-11-5-5h-23l-5-1 2-2z" fill="#FEFEFE"/>
<path transform="translate(1597,1284)" d="m0 0 3 1-15 5 2 7 24 16-2 1-9-5-12-7-14-7-1-4 7-3z" fill="#FEFEFE"/>
<path transform="translate(1730,805)" d="m0 0 22 7 16 4 17 6 10 10h-3l-7-6-12-5-20-5-18-5-11-3v-1z" fill="#FEFEFE"/>
<path transform="translate(656,1181)" d="m0 0 2 1-13 8-20 12-17 10-12 7-5 2h-7l3-2 16-8 15-8 9-6 15-8 8-5z" fill="#FEFEFE"/>
<path transform="translate(1349,1274)" d="m0 0 5 1 4 2v2l5 1 5 3 18 10 5 4 7 3 9 9 3 7v6l-2-3-6-11-10-8-19-10-11-7-13-8z" fill="#FEFEFE"/>
<path transform="translate(1069,1390)" d="m0 0 4 1 16 16 3 4-1 2-14-9-6-2-1 19h-1z" fill="#FEFEFE"/>
<path transform="translate(1582,759)" d="m0 0 3 1v4l3 3v2l10 2 2-1 8 4 7 1v2h4v2l-11-2-29-8-5-3v-3z" fill="#FEFEFE"/>
<path transform="translate(624,706)" d="m0 0 2 1 5 15 1 4 1 7 3 8 3 7 3 4 9 5 8 5 7 4 4 4-6-2-4-3-12-6-9-7-5-6-4-14-5-18z" fill="#FEFEFE"/>
<path transform="translate(165,1314)" d="m0 0 2 1-6 8-3 7-2 8v23l4 10 4 5 3 5 8 7 3 1v2l7 2 6 2-1 2-5-1-11-6-10-9-7-10-3-7v-32l7-14z" fill="#FEFEFE"/>
<path transform="translate(715,749)" d="m0 0 3 3 8 30 2 7 3 9v7l-6-2-5-4 5-1-1-10-3-8-1-9-2-6-1-8-2-4z" fill="#FEFEFE"/>
<path transform="translate(306,805)" d="m0 0 6 1 1 3-30 8-18 5-8 4-2-1 7-5 9-4h7l5-3 8-1 3-3h7z" fill="#FEFEFE"/>
<path transform="translate(689,983)" d="m0 0 1 4-2 3h-5l-4-2-5 5-3 1-5-3-5 5-4 1-4-2 1-3 10-3 10-2 5-2z" fill="#86C4F7"/>
<path transform="translate(273,734)" d="m0 0 4 1-1 2h-2l-1 2-2 2h-3v-2l-4 1-2 3h-2v2l-5-1-3-2-2 4-4 2-4-1-3-3 3-2 16-4 10-3z" fill="#A8D4F9"/>
<path transform="translate(1782,1524)" d="m0 0 6 2 8 4 10 6 11 6 13 8 6 3-2 2-10-4-16-10-16-9-10-7z" fill="#FEFEFE"/>
<path transform="translate(1818,1433)" d="m0 0 5 2 21 11 11 7 11 6 13 8 5 3 3 3v2h-2l-4-4-9-5-20-12-18-10-15-9z" fill="#FEFEFE"/>
<path transform="translate(1311,1252)" d="m0 0 4 1 14 7 11 7 4 4-6-2-11-5-12-2-1 3-3-8z" fill="#FEFEFE"/>
<path transform="translate(716,1354)" d="m0 0 2 1 3 6 9 8 8 5 15 4h14l12-2-2 2-12 4h-12l-8-3-13-5-9-7-6-8z" fill="#FEFEFE"/>
<path transform="translate(1737,1498)" d="m0 0 5 1 12 7 11 6v2l4 1 2 3-5-2-16-9-7-4v14l-2 1-4-13z" fill="#FEFEFE"/>
<path transform="translate(547,437)" d="m0 0 5 5 4 6 5 15 2 10 4 13 2 4-1 3 4 9 1 2h-2v6l-2-4-5-18-2-9-8-28-5-10z" fill="#FEFEFE"/>
<path transform="translate(790,958)" d="m0 0h13l9 3 19 10 2 2-1 2-6-2-20-10-7-3-1 3h-3v-3h-3v2l-6-2z" fill="#FEFEFE"/>
<path transform="translate(823,777)" d="m0 0 2 3 3 5 1 8 4 5-2 4 3 6v3l3 1-3 1 3 9 2 5 1 5 3 5-4 3-4-14-5-20-4-15-3-10z" fill="#FEFEFE"/>
<path transform="translate(212,1300)" d="m0 0 7 1v2l8 1 4-1 3 3h3v2l6-1 11 4 4 1v2l3-1 1 3-7-1-23-6-19-6-2-2z" fill="#FEFEFE"/>
<path transform="translate(881,890)" d="m0 0 4 1 15 10 11 6 22 13 11 7-2 1-21-12-9-5-17-10-14-8z" fill="#FEFEFE"/>
<path transform="translate(266,1314)" d="m0 0 5 1 5 3 7-1 5 3 6 1 5 1v2h5l6 2 4 1v3l-10-2-21-6-21-5z" fill="#FEFEFE"/>
<path transform="translate(461,864)" d="m0 0h2v4l-4 4-4-2h-4l-5 2v3l-4-1-4-2-4 4h-2v2l-5-1-2-4 9-2z" fill="#BDDEFA"/>
<path transform="translate(726,1252)" d="m0 0h3l-1 8-1 5-3-1-2-4-6 1-8 6-14 7-2-1 14-9z" fill="#FEFEFE"/>
<path transform="translate(657,1160)" d="m0 0 8 1 15 4 2 4-12 6-2-1 2-6-12-6z" fill="#FEFEFE"/>
<path transform="translate(1220,1088)" d="m0 0 6 1 5 3 2 1 29 1v1l-8 2-6 2h-10l-14-7z" fill="#FEFEFE"/>
<path transform="translate(767,676)" d="m0 0h7l9 4 8 7 10 10 5 9 3 11 2 5-3 3-6-21-6-9-8-8-13-8-8-2z" fill="#FEFEFE"/>
<path transform="translate(511,659)" d="m0 0 5 10 2 7-1 5-10-4-11-7-1-2 6 2 8 3 2-6z" fill="#FEFEFE"/>
<path transform="translate(588,573)" d="m0 0 5 10 2 10 3 1-2 4 3 8 2 1v2h-2v8l-3-3-2-5-3-14v-8l-3-9z" fill="#81C2F7"/>
<path transform="translate(408,878)" d="m0 0 2 1-2 3-6 3-5 1-1 3-11-2-5 5-6-2-1 2-1-3 9-1 1-3 23-6zm-12 6 1 2z" fill="#AAD5F9"/>
<path transform="translate(1248,255)" d="m0 0 8 1 6 2 11 4 8 5 3 2 2 6-7-6-10-5-14-4-14-1 2-3z" fill="#FEFEFE"/>
<path transform="translate(361,710)" d="m0 0m-3 1h3v2l-5 1-2 4-6 2-4-2-1 3-3-1-1 5-6-4 2-4 14-4z" fill="#7ABEF7"/>
<path transform="translate(575,525)" d="m0 0 4 5 1 5 2 5 2 2-3 1 3 8 1 4 2 1-1 5 2 5 3 4-4 3-1-7-3-1-3-9v-10l-4-15z" fill="#92CAF8"/>
<path transform="translate(756,1782)" d="m0 0 8 6 5 3 4 3 10 2h21l-4 4-3 1-3-2-6 1-5 1-6-4-9-2-9-6-3-4z" fill="#FEFEFE"/>
<path transform="translate(234,879)" d="m0 0h2l6 12 4 5v2l3 1v2l4 2 10 6 5 2-1 2-5-1-9-5-10-9-6-8-3-8z" fill="#FEFEFE"/>
<path transform="translate(233,1180)" d="m0 0h2v17l2 9 5 10 4 5v2l4 2 6 4 3 3-4-1-7-4-6-7-5-8-6-17v-9z" fill="#FEFEFE"/>
<path transform="translate(1069,1235)" d="m0 0 2 4 3 3v4h-2l3 10 14 14 6 7 1 4-21-21-5-8-1-5z" fill="#FEFEFE"/>
<path transform="translate(845,858)" d="m0 0 4 4 3 7 2 6 5 1 6 5 9 5 3 4-6-2-14-9-8-6-4-11z" fill="#FEFEFE"/>
<path transform="translate(1366,1165)" d="m0 0h5l1 7 5 5 7 5-2 1-6-4-16-8-2-3z" fill="#FEFEFE"/>
<path transform="translate(582,1119)" d="m0 0 4 5 7 10 7 6 9 6 5 2v2h2l-1 2-9-5-8-4-10-9-6-11z" fill="#FEFEFE"/>
<path transform="translate(749,676)" d="m0 0 3 1-17 7-8 6-8 10-4 8-2 9-2-2 2-11 6-9 10-10 16-8z" fill="#FEFEFE"/>
<path transform="translate(1459,1505)" d="m0 0 2 3 8 30 3 11v5l-2-2-5-16-2-9-5-13z" fill="#FEFEFE"/>
<path transform="translate(232,1426)" d="m0 0 2 1-14 9-11 6-13 8-9 5-2-1 11-8 15-8 9-6z" fill="#FEFEFE"/>
<path transform="translate(752,965)" d="m0 0h4l-2 4-3 4-4-2-4-1 1 3h-3v3l-4 1-5-5 6-3z" fill="#4FAAF5"/>
<path transform="translate(1445,1453)" d="m0 0h1l6 22 4 15 2 7v5l-2-3-3-10-3-9-2-4-1-10-3-5z" fill="#FEFEFE"/>
<path transform="translate(1812,1406)" d="m0 0 3 1-20 8 2 4 3 3-7-1-7-5 4-4 15-4z" fill="#FEFEFE"/>
<path transform="translate(1559,1395)" d="m0 0 5 2 16 8 14 9 1 2-6-2-22-11-7-5z" fill="#FEFEFE"/>
<path transform="translate(1139,1324)" d="m0 0 8 6 6 5v2l4 2v2l3 1v2l4 2 13 13-1 2-10-8-6-7-13-13-8-7z" fill="#FEFEFE"/>
<path transform="translate(578,834)" d="m0 0 7 1 4-1 11 4 1 3 5 2 2 1-1 2-16-8-7 1h-9l-6-2 3-2z" fill="#FEFEFE"/>
<path transform="translate(563,488)" d="m0 0h2l5 18v4h2l3 5 2 2-3 1 1 7-3-1-2-5-3-13-4-14z" fill="#4FAAF5"/>
<path transform="translate(1663,1163)" d="m0 0h5l6 2v1l-18 4-10 3-7 2-4-1 7-4 7-1 2-2 9-1z" fill="#FEFEFE"/>
<path transform="translate(640,1054)" d="m0 0 7 2v2l4-1 2 2 7-1 1 3 10 1 1 2h3v3l-9-2-19-5-10-3 3-1z" fill="#FEFEFE"/>
<path transform="translate(1538,1428)" d="m0 0 6 12 1 6 1 3h2v2h-2l2 8 4 4v2h-2l-1 5-2-3-4-15-3-12-2-7z" fill="#FEFEFE"/>
<path transform="translate(1417,1347)" d="m0 0 2 4 4 15 5 17 2 8v6l-2-3-5-18-7-21z" fill="#FEFEFE"/>
<path transform="translate(1858,497)" d="m0 0 8 1 10 3 6 4 13 13 4 7-1 3-7-11-8-8-9-6-11-3-13-1v-1z" fill="#FEFEFE"/>
<path transform="translate(745,1735)" d="m0 0 1 3-1 5v17l4 11 1 4-4-4-3-7-1-9-4-2 2-5h2l1-9z" fill="#FEFEFE"/>
<path transform="translate(370,890)" d="m0 0 1 3-2 2h-10l-2 5-5-1v-2l-8 1 1-3 15-4z" fill="#7CBFF7"/>
<path transform="translate(525,846)" d="m0 0h3v3h-3l-2 5-6-2-4 1v4l-3 1-4-3v-2l-2-1 9-2 8-3z" fill="#A4D3F9"/>
<path transform="translate(244,1409)" d="m0 0 10 2 1 4-13 8-6 2 5-5 4-3 1-5h-2z" fill="#FEFEFE"/>
<path transform="translate(360,1339)" d="m0 0h26l-4 3-8 2-11-1-6-2z" fill="#FEFEFE"/>
<path transform="translate(842,1910)" d="m0 0 2 3 4 9 8 10 10 8 5 2v1l-7-1-8-7-9-9-6-11z" fill="#FEFEFE"/>
<path transform="translate(1567,1538)" d="m0 0 3 3 2 4 1 6 1 3h2v2h-2l2 9 4 6-3 1-1 3-8-30z" fill="#FEFEFE"/>
<path transform="translate(178,497)" d="m0 0 4 1v1l-9 2-14 8-12 12v-3l7-9 9-6 11-5z" fill="#FEFEFE"/>
<path transform="translate(782,958)" d="m0 0h4v2l-6 4-4 2-3-2-4 1-7 5-2-3 5-1 2-4z" fill="#A1D1F9"/>
<path transform="translate(154,705)" d="m0 0h1l1 13 4 11 7 10 4 4v2l-5-2-6-7-6-13z" fill="#FEFEFE"/>
<path transform="translate(1224,1300)" d="m0 0 2 2 6 22 3 9 2 9 1 5h-2l-5-16-7-28z" fill="#FEFEFE"/>
<path transform="translate(1223,753)" d="m0 0h1l-1 10-8 28-4 13h-1l1-7 3-13 5-16 2-9z" fill="#FEFEFE"/>
<path transform="translate(292,729)" d="m0 0m-3 1h12l-2 4-7-1-5 5-5-1-5-3 3-2z" fill="#B1D9FA"/>
<path transform="translate(1829,1300)" d="m0 0 11 1 6-1 8 3 9 3-3 1-13-3h-20z" fill="#FEFEFE"/>
<path transform="translate(1690,431)" d="m0 0h7l-16 8-12 11-4 4 2-5 9-10 6-5z" fill="#FEFEFE"/>
<path transform="translate(926,619)" d="m0 0 5 2 8 7 9 10 1 5-19-19z" fill="#FEFEFE"/>
<path transform="translate(350,432)" d="m0 0 6 1 8 6 9 9 5 9-1 2-8-11-8-8-11-7z" fill="#FEFEFE"/>
<path transform="translate(1524,1385)" d="m0 0h2l6 22 3 10v6l-3-3-5-21-3-10z" fill="#4FAAF5"/>
<path transform="translate(580,939)" d="m0 0 1 4v20l3 10 2 3v3h2l-1 3-5-6-3-10-1-2v-19z" fill="#FEFEFE"/>
<path transform="translate(500,853)" d="m0 0h4l-2 5h-3l-1 3-5-2-3-2v2l-11 2-1-2 20-5z" fill="#56ADF5"/>
<path transform="translate(175,665)" d="m0 0 4 1-9 6-9 10-5 10-1 12h-1v-14l5-10 14-14z" fill="#FEFEFE"/>
<path transform="translate(192,497)" d="m0 0 8 1 12 5 12 8-2 1-16-8-9-4-13-1v-1z" fill="#FEFEFE"/>
<path transform="translate(1718,431)" d="m0 0h7l9 4 8 7 7 8 3 5-1 3-7-11-10-8-10-6-6-1z" fill="#FEFEFE"/>
<path transform="translate(465,1570)" d="m0 0 1 4-1 8v17l3 10-5-4-1-6v-24z" fill="#FEFEFE"/>
<path transform="translate(1753,1566)" d="m0 0 5 5-1 9 1 8-3 5-1 5h-1v-7l1-2z" fill="#FEFEFE"/>
<path transform="translate(515,420)" d="m0 0 13 1 12 6 6 7-1 2-7-6-14-7-9-2z" fill="#FEFEFE"/>
<path transform="translate(439,1419)" d="m0 0 2 1-9 6-5 5-4 5-1 7-3 7h-2l2-9 2-6 6-9 9-5z" fill="#FEFEFE"/>
<path transform="translate(1788,1309)" d="m0 0 5 2 2 3-22 6-2-1 4-1 1-4h4l6 1 1-5z" fill="#FEFEFE"/>
<path transform="translate(1643,530)" d="m0 0 1 3-2 10-2 5-2 10-3 6-3-2 4-5 1-5 1-2h-2l2-6h2l1-8-1-3h2z" fill="#FEFEFE"/>
<path transform="translate(1764,1143)" d="m0 0h10l12 5 8 7 4 4-1 2-10-9-11-5-12-3z" fill="#FEFEFE"/>
<path transform="translate(294,1142)" d="m0 0 7 1 4 2 9 2v2h4v2l-7-1-19-5z" fill="#FEFEFE"/>
<path transform="translate(220,1403)" d="m0 0 9 1 9 3 6 1-3 3-8-1-3-3-4 1-6-3z" fill="#FEFEFE"/>
<path transform="translate(1518,1634)" d="m0 0 19 1 7-1-1 3-6 2-3-2v2h-2l-1-2-5 2-8-2z" fill="#FEFEFE"/>
<path transform="translate(1473,1558)" d="m0 0 2 3 5 17 2 9 1 2v6l-2-4-3-9-2-5-2-10-2-7z" fill="#FEFEFE"/>
<path transform="translate(581,1084)" d="m0 0h1l-1 12v14l1 9-2-3-2-5v-20z" fill="#FEFEFE"/>
<path transform="translate(323,1153)" d="m0 0 10 2 14 4 1 2-6 1-7-2v-2l-7-1-5-2z" fill="#4FAAF5"/>
<path transform="translate(209,651)" d="m0 0 7 1 2 2-21 6-4-1 5-4h9z" fill="#FEFEFE"/>
<path transform="translate(1736,1324)" d="m0 0 11 2v1l-22 5-6 1 5-5h9z" fill="#FEFEFE"/>
<path transform="translate(318,722)" d="m0 0m-5 1h5l-1 4-4 1-1 3-4-1-4-4z" fill="#53ACF5"/>
<path transform="translate(1146,108)" d="m0 0h11l9 2v1h-18l-9 2-8 2 3-3 7-3z" fill="#FEFEFE"/>
<path transform="translate(1803,1170)" d="m0 0 4 5 3 8v13l-1 5h-1l-2-16-2-10z" fill="#FEFEFE"/>
<path transform="translate(860,1176)" d="m0 0 2 1-9 7-7 15-1 5-3 3 1-7 5-12 4-6z" fill="#FEFEFE"/>
<path transform="translate(356,791)" d="m0 0 7 1-1 3-17 5-4-1h3l2-5 9 2z" fill="#FEFEFE"/>
<path transform="translate(314,431)" d="m0 0h11v1l-9 2-9 5-9 7-4 4 2-5 9-8z" fill="#FEFEFE"/>
<path transform="translate(1304,1078)" d="m0 0 6 2 2 2-23 6-2-1 4-2 1-2 10-1z" fill="#FEFEFE"/>
<path transform="translate(732,971)" d="m0 0m-4 1h4v3h-2v2h-3l-1 3-4-1-2-1v-2l-2-1z" fill="#4FAAF5"/>
<path transform="translate(870,604)" d="m0 0 1 2-12 7-4 2-2 4-5 5 2-5 6-8z" fill="#FEFEFE"/>
<path transform="translate(1506,1205)" d="m0 0 8 1v2l-13 4-9 1 1-3 9-1h2z" fill="#FEFEFE"/>
<path transform="translate(1641,1269)" d="m0 0m-5 1h5l-3 5h-3l-1 3-5-2-2-3 6-2z" fill="#87C5F7"/>
<path transform="translate(1238,958)" d="m0 0h9l3 1v3h-5l-1-1h-6l-15 7v-2l10-6z" fill="#FEFEFE"/>
<path transform="translate(442,869)" d="m0 0h4v2l-8 1-4 4h-2v2l-5-1-2-4 9-2z" fill="#90C9F8"/>
<path transform="translate(409,777)" d="m0 0 7 2-2 2-10 3-10 2 2-1v-3l7-1h4z" fill="#FEFEFE"/>
<path transform="translate(1386,1160)" d="m0 0 2 1-6 3-16 2-8 2 4-4 8-2h9z" fill="#8EC8F8"/>
<path transform="translate(1717,1149)" d="m0 0 7 1 1 2-13 4-9 1 1-3 7-1 4-1z" fill="#FEFEFE"/>
<path transform="translate(1319,1283)" d="m0 0 4 5 3 6-1 12-2-4-4-16z" fill="#FEFEFE"/>
<path transform="translate(1612,1177)" d="m0 0 7 1 1 2-18 5-4-1 1-2 11-2z" fill="#FEFEFE"/>
<path transform="translate(332,798)" d="m0 0h5l2 3-12 4-10 2v-2l4-1v-2l4 1 5-1z" fill="#FEFEFE"/>
<path transform="translate(254,739)" d="m0 0m-3 1 3 1-3 3-1 2-4 2-4-1-3-3 3-2z" fill="#95CBF8"/>
<path transform="translate(1172,113)" d="m0 0 6 2 8 6 7 7 5 8-1 3-7-11-9-8-9-6z" fill="#FEFEFE"/>
<path transform="translate(1190,1929)" d="m0 0 2 1-5 6-10 6-8 4h-5l2-2 10-4 8-6z" fill="#FEFEFE"/>
<path transform="translate(662,989)" d="m0 0h4l-1 4-5 4-4-1-3-1 1-3z" fill="#9ACEF8"/>
<path transform="translate(696,785)" d="m0 0h6l8 6 6 3 3 4-4-1-8-5-8-4z" fill="#FEFEFE"/>
<path transform="translate(812,740)" d="m0 0 3 3 3 6 1 6 1 3 3 1-5 4-6-21z" fill="#FEFEFE"/>
<path transform="translate(1872,672)" d="m0 0 4 1 5 5 2 6 5 9-2 2-6-11-5-8v-2l-3-1z" fill="#FEFEFE"/>
<path transform="translate(1559,1191)" d="m0 0 9 2v1l-17 4-4-1 3-3h6v-2z" fill="#FEFEFE"/>
<path transform="translate(591,985)" d="m0 0 7 6 14 7 5 1v1h-8l-13-7-5-5z" fill="#FEFEFE"/>
<path transform="translate(1806,849)" d="m0 0 2 2 2 6v17l-2 6h-1v-21z" fill="#FEFEFE"/>
<path transform="translate(1101,1285)" d="m0 0 4 2 10 10 7 8 3 3-1 2-15-15-8-9z" fill="#FEFEFE"/>
<path transform="translate(850,1759)" d="m0 0v3h-2l-2 4-17 17-2-1 8-8 5-6 6-5z" fill="#FEFEFE"/>
<path transform="translate(1863,1307)" d="m0 0 5 2 10 9 7 10-1 3-6-9-6-7-9-7z" fill="#FEFEFE"/>
<path transform="translate(286,463)" d="m0 0 2 1-1 7v18l-3-4-1-10z" fill="#FEFEFE"/>
<path transform="translate(342,896)" d="m0 0h2l-1 5-4 2-6-3-4 2 1-3z" fill="#A4D3F9"/>
<path transform="translate(396,528)" d="m0 0 4 5 1 2 1 7 3 4h-2l-2 4-5-18z" fill="#FEFEFE"/>
<path transform="translate(1754,467)" d="m0 0 3 3 1 6h-2l1 7 1 5-4 2z" fill="#FEFEFE"/>
<path transform="translate(982,2019)" d="m0 0 7 6 6 5 9 6-3 1-14-10-5-6z" fill="#FEFEFE"/>
<path transform="translate(823,1785)" d="m0 0 2 1-8 7-9 4-4-2 9-4z" fill="#FEFEFE"/>
<path transform="translate(1198,1388)" d="m0 0 3 3 2 4v22h-1l-2-18z" fill="#FEFEFE"/>
<path transform="translate(1461,1115)" d="m0 0h1l-1 7-4 7-4 5-5 4-2-1 10-11z" fill="#FEFEFE"/>
<path transform="translate(637,897)" d="m0 0h6l1 2-7 3-13 2v-2l5-2h6z" fill="#FEFEFE"/>
<path transform="translate(1451,835)" d="m0 0h9l5 1-1 3h-2v-2l-4 2h-13l3-3z" fill="#FEFEFE"/>
<path transform="translate(588,573)" d="m0 0 5 10 2 10 3 1-4 4-6-20z" fill="#FEFEFE"/>
<path transform="translate(600,1061)" d="m0 0 2 1-12 11-6 9-1-2 5-8 7-8z" fill="#FEFEFE"/>
<path transform="translate(752,965)" d="m0 0h4l-2 4-3 4-4-2-3-2 4-3z" fill="#8FC8F8"/>
<path transform="translate(575,525)" d="m0 0 4 5 1 5 2 5 2 2-3 1 1 7-2-4-4-15z" fill="#FEFEFE"/>
<path transform="translate(571,510)" d="m0 0 4 5 2 2-3 1 1 7-3-1-2-5z" fill="#AFD8F9"/>
<path transform="translate(932,1923)" d="m0 0 2 1-5 6-14 10-2-1 11-9h2l2-4z" fill="#FEFEFE"/>
<path transform="translate(1422,683)" d="m0 0 1 3-5 21-2-3v-6l3-7z" fill="#FEFEFE"/>
<path transform="translate(410,581)" d="m0 0 4 4 1 7 3 5-1 8-2-3-5-18z" fill="#FEFEFE"/>
<path transform="translate(573,525)" d="m0 0h2l3 9 3 12-1 4-3-7-3-10z" fill="#4FAAF5"/>
<path transform="translate(385,486)" d="m0 0 2 3 5 15 2 4h-2v5l-2-3-3-14-2-6z" fill="#FEFEFE"/>
<path transform="translate(465,450)" d="m0 0 1 3-1 7v23l-2-1-1-9v-14z" fill="#FEFEFE"/>
<path transform="translate(1839,1396)" d="m0 0m-3 1h3l-1 4-5 3-4-2v-3z" fill="#92CAF8"/>
<path transform="translate(1626,1273)" d="m0 0 1 2-4 4-5 2-3-4 7-3z" fill="#8EC8F8"/>
<path transform="translate(703,979)" d="m0 0 2 1-3 3h-2l-1 4-7-2h-2l1-3z" fill="#9DCFF9"/>
<path transform="translate(1287,276)" d="m0 0 5 4 6 11-1 8h-1l-4-14-5-7z" fill="#FEFEFE"/>
<path transform="translate(617 1e3)" d="m0 0h19l-1 2-6 2h-4l-8-2z" fill="#FEFEFE"/>
<path transform="translate(233,854)" d="m0 0h2l-1 19-3-3v-9z" fill="#FEFEFE"/>
<path transform="translate(1542,419)" d="m0 0 7 2 11 7 1 3-4-2-12-7h-6z" fill="#FEFEFE"/>
<path transform="translate(1899,1492)" d="m0 0 3 3 3 10-1 10-2-3-2-15z" fill="#FEFEFE"/>
<path transform="translate(525,846)" d="m0 0h3v3h-3l-2 5-6-2-1-2 5-3z" fill="#A8D4F9"/>
<path transform="translate(560,839)" d="m0 0h5l-4 4-6-2-1 3-3 1-1 2-4-2-1-2 9-3z" fill="#FEFEFE"/>
<path transform="translate(1297,1737)" d="m0 0 2 3 3 12-2 7h-1l-2-16z" fill="#FEFEFE"/>
<path transform="translate(1282,1086)" d="m0 0 4 1v2l-17 4-4-1 13-4z" fill="#FEFEFE"/>
<path transform="translate(1438,1061)" d="m0 0 5 2 8 7 5 7-1 2-9-10-8-7z" fill="#FEFEFE"/>
<path transform="translate(273,734)" d="m0 0 4 1-1 2h-2l-1 2-2 2h-3l-3-4 3-2z" fill="#8AC6F8"/>
<path transform="translate(1883,727)" d="m0 0h1l-1 7-7 8-6 5-2-1 4-4h2l2-4 6-7z" fill="#FEFEFE"/>
<path transform="translate(1199,637)" d="m0 0 5 10-1 5-3 4z" fill="#FEFEFE"/>
<path transform="translate(1241,1796)" d="m0 0 14 1 5 1-3 2-6-1-5 1-5-2z" fill="#FEFEFE"/>
<path transform="translate(1801,1306)" d="m0 0 9 3-4 2-6 2h-4v-2l3-1z" fill="#FEFEFE"/>
<path transform="translate(672,771)" d="m0 0 6 2 14 8 2 3-6-2-10-6-6-4z" fill="#FEFEFE"/>
<path transform="translate(1200,1886)" d="m0 0 3 4v18l-2 2z" fill="#FEFEFE"/>
<path transform="translate(569,834)" d="m0 0m-4 1h4l-1 3-8 2h-6l3-3z" fill="#53ACF5"/>
<path transform="translate(185,657)" d="m0 0 5 2 3 2-9 3-5 1z" fill="#FEFEFE"/>
<path transform="translate(1137,602)" d="m0 0 4 1-10 5-9 6-2-1 8-7z" fill="#FEFEFE"/>
<path transform="translate(1101,1423)" d="m0 0 5 2 8 9-1 2-10-9z" fill="#FEFEFE"/>
<path transform="translate(709,1327)" d="m0 0h2l1 18h-1l-2-8-2-1v-7z" fill="#FEFEFE"/>
<path transform="translate(1480,1212)" d="m0 0h5l2 3-9 3-4-1z" fill="#FEFEFE"/>
<path transform="translate(601,910)" d="m0 0 3 1-11 8-7 8v-3l4-6 9-7z" fill="#FEFEFE"/>
<path transform="translate(1189,680)" d="m0 0 2 1-6 8-7 6-2-1 3-1 2-4 7-8z" fill="#FEFEFE"/>
<path transform="translate(902,602)" d="m0 0 12 5 5 4 2 4-4-2-11-7-5-2z" fill="#FEFEFE"/>
<path transform="translate(1497,432)" d="m0 0v3l-6 7-7 14-1-4 5-10z" fill="#FEFEFE"/>
<path transform="translate(840,1396)" d="m0 0h1v17l-1-2-3-1v-6l2-3z" fill="#FEFEFE"/>
<path transform="translate(1268,676)" d="m0 0h7v1l-8 2-9 4-5 3-2-1 10-7z" fill="#FEFEFE"/>
<path transform="translate(1152,598)" d="m0 0 6 2 4 3h-13l-1-3z" fill="#FEFEFE"/>
<path transform="translate(1200,145)" d="m0 0 2 3 1 4v12l-2 3z" fill="#FEFEFE"/>
<path transform="translate(422,874)" d="m0 0 2 1-6 6h-5v-4z" fill="#9FD0F9"/>
<path transform="translate(1609,744)" d="m0 0 2 1-11 7-5 3-3-1 9-6z" fill="#FEFEFE"/>
<path transform="translate(1750,1603)" d="m0 0 1 2-6 8-5 4-2-1z" fill="#FEFEFE"/>
<path transform="translate(254,1148)" d="m0 0 3 1-9 7-6 7-1-2 6-8z" fill="#FEFEFE"/>
<path transform="translate(1901,533)" d="m0 0 2 4 1 3v11l-2 3-1-14z" fill="#FEFEFE"/>
<path transform="translate(139,1504)" d="m0 0h1v14h-1v-5l-4-2 1-4z" fill="#FEFEFE"/>
<path transform="translate(1465,1216)" d="m0 0 7 1 1 2-9 2-4-1z" fill="#FEFEFE"/>
<path transform="translate(1127,1020)" d="m0 0 1 2-11 6 3 5-5-2-1-4 4-3z" fill="#4FAAF5"/>
<path transform="translate(370,787)" d="m0 0 9 3v1l-14 3v-2h4z" fill="#FEFEFE"/>
<path transform="translate(1113,757)" d="m0 0h2l-2 4-13 12v-3z" fill="#FEFEFE"/>
<path transform="translate(502,622)" d="m0 0 2 3 4 14v5l-2-3-5-15z" fill="#FEFEFE"/>
<path transform="translate(1752,912)" d="m0 0 14 1-2 3h-7l-5-3z" fill="#FEFEFE"/>
<path transform="translate(173,746)" d="m0 0 5 2 6 4 4 2-6 1-4-2z" fill="#FEFEFE"/>
<path transform="translate(1630,731)" d="m0 0 2 1-13 9-6 3-2-1 11-7z" fill="#FEFEFE"/>
<path transform="translate(300,726)" d="m0 0h4l-1 4-3 1h-8l3-3z" fill="#5DB1F5"/>
<path transform="translate(465,1404)" d="m0 0 2 1-9 6-8 4-2-1 7-5z" fill="#FEFEFE"/>
<path transform="translate(1325,1306)" d="m0 0 4 3v14h-1l-3-12z" fill="#FEFEFE"/>
<path transform="translate(281,1138)" d="m0 0 5 2v2l3 1h-12l2-4z" fill="#FEFEFE"/>
<path transform="translate(942,772)" d="m0 0h2v2l4 1 5 6v2l-5-2-6-8z" fill="#FEFEFE"/>
<path transform="translate(422,774)" d="m0 0h7l2 3-8 2h-5z" fill="#FEFEFE"/>
<path transform="translate(154,1544)" d="m0 0 4 2 7 5 4 2-5 1-8-7z" fill="#FEFEFE"/>
<path transform="translate(318,1328)" d="m0 0 7 2 3 1v2l-10-1-3-2z" fill="#FEFEFE"/>
<path transform="translate(1399,1154)" d="m0 0m-4 1h4v2l-7 4h-3l1-4z" fill="#91CAF8"/>
<path transform="translate(1208,1079)" d="m0 0 5 2 7 6-2 1-9-5-2-3z" fill="#FEFEFE"/>
<path transform="translate(1151,1008)" d="m0 0 3 1-15 9-3-1 8-5z" fill="#FEFEFE"/>
<path transform="translate(1297,300)" d="m0 0 5 5-1 5-3 2z" fill="#FEFEFE"/>
<path transform="translate(859,118)" d="m0 0h2v2l-8 7-5 4 2-5 7-7z" fill="#FEFEFE"/>
<path transform="translate(391,1332)" d="m0 0h5l1 2-9 5h-2l2-5z" fill="#FEFEFE"/>
<path transform="translate(616,903)" d="m0 0 3 3-12 4-3-1 8-5z" fill="#FEFEFE"/>
<path transform="translate(1750,1550)" d="m0 0 5 5-2 5-2 2z" fill="#FEFEFE"/>
<path transform="translate(1549,1470)" d="m0 0 2 1 2 6h2v2h-2l-2 4-2-7z" fill="#FEFEFE"/>
<path transform="translate(1815,1303)" d="m0 0 7 1v2l-9 3-3-1z" fill="#FEFEFE"/>
<path transform="translate(1521,1201)" d="m0 0 7 2-3 2-10 3v-2l3-1z" fill="#FEFEFE"/>
<path transform="translate(1625,1174)" d="m0 0h8l2 2-11 3-4-1 3-1z" fill="#FEFEFE"/>
<path transform="translate(1345,1068)" d="m0 0 4 1h3l2 2-12 2z" fill="#FEFEFE"/>
<path transform="translate(356,894)" d="m0 0h2l1 3-2 3-5-1v-2l-4-1z" fill="#FEFEFE"/>
<path transform="translate(1624,777)" d="m0 0 4 1 1 3 4 1-2 1-12-3 4-2z" fill="#FEFEFE"/>
<path transform="translate(1109,623)" d="m0 0 2 1-10 10-1-3 4-5z" fill="#FEFEFE"/>
<path transform="translate(1504,1628)" d="m0 0 4 1 4 3 6 1-2 2h-5l-7-5z" fill="#FEFEFE"/>
<path transform="translate(416,1450)" d="m0 0h1v7h2v3h-4l1 4-3 1 1-6z" fill="#FEFEFE"/>
<path transform="translate(1693,1258)" d="m0 0 2 2-3 1-2 3-5-1v-2l-2-1z" fill="#FEFEFE"/>
<path transform="translate(1356,1064)" d="m0 0 7 2 1 2-10 2z" fill="#FEFEFE"/>
<path transform="translate(1369,1061)" d="m0 0 7 1 1 2-9 3-3-1 3-3z" fill="#FEFEFE"/>
<path transform="translate(227,647)" d="m0 0 1 2 2 1-8 3-4-1 4-4z" fill="#FEFEFE"/>
<path transform="translate(840,153)" d="m0 0 2 1v11l-2-4-3-2 2-5z" fill="#FEFEFE"/>
<path transform="translate(1742,1518)" d="m0 0 6 9-2 6-2-3-2-8z" fill="#FEFEFE"/>
<path transform="translate(1069,1490)" d="m0 0h2l4 12v3l-4-6z" fill="#FEFEFE"/>
<path transform="translate(558,1212)" d="m0 0 5 2 4 2v1l-8-1-6-1 3-2z" fill="#FEFEFE"/>
<path transform="translate(1573,1188)" d="m0 0h7l1 2-12 3 2-4z" fill="#FEFEFE"/>
<path transform="translate(1389,1157)" d="m0 0m-4 1h4v2l-10 3-4-1z" fill="#4FAAF5"/>
<path transform="translate(651,995)" d="m0 0 2 2h-3v3l-6 1-3-3z" fill="#FEFEFE"/>
<path transform="translate(370,890)" d="m0 0 1 3-2 2h-7l-1-3z" fill="#FEFEFE"/>
<path transform="translate(475,862)" d="m0 0 2 2h-2l-1 4-5-1-2-3z" fill="#FEFEFE"/>
<path transform="translate(840,840)" d="m0 0 2 2 4 8-2 4-2-4-2-6z" fill="#FEFEFE"/>
<path transform="translate(346,1334)" d="m0 0 6 2v2l5 1v1l-8-1-4-2z" fill="#FEFEFE"/>
<path transform="translate(1611,1314)" d="m0 0 5 2 9 5 2 3-6-2-10-7z" fill="#FEFEFE"/>
<path transform="translate(1678,1160)" d="m0 0h6l2 2-9 3-3-1z" fill="#FEFEFE"/>
<path transform="translate(645,1157)" d="m0 0 9 1 3 2v2l-8-1-1-2z" fill="#FEFEFE"/>
<path transform="translate(1401,999)" d="m0 0 12 2-2 3-5-1-5-2z" fill="#FEFEFE"/>
<path transform="translate(286,912)" d="m0 0 2 1-5 3h-6l-2-3z" fill="#FEFEFE"/>
<path transform="translate(500,855)" d="m0 0 3 1-1 2h-3l-1 3-5-2-1-2z" fill="#FEFEFE"/>
<path transform="translate(384,784)" d="m0 0 7 1 1 2-10 2z" fill="#FEFEFE"/>
<path transform="translate(315,725)" d="m0 0 3 1-2 2h-3l-1 3-4-1v-3z" fill="#FEFEFE"/>
<path transform="translate(380,467)" d="m0 0 2 3 4 12-2 4-4-15z" fill="#FEFEFE"/>
<path transform="translate(1269,1379)" d="m0 0h10v3l-5 1-5-3z" fill="#FEFEFE"/>
<path transform="translate(634,1311)" d="m0 0 2 1v5l-2 4-1 3h-2l1-7z" fill="#FEFEFE"/>
<path transform="translate(445,1283)" d="m0 0 11 2-4 4-2-2-5-1z" fill="#FEFEFE"/>
<path transform="translate(571,1216)" d="m0 0h5l4 4h-6l-7-2z" fill="#FEFEFE"/>
<path transform="translate(1534,1198)" d="m0 0h8l4 2-14 3z" fill="#FEFEFE"/>
<path transform="translate(1748,1142)" d="m0 0 15 1v1l-16 1-4 1 1-3z" fill="#FEFEFE"/>
<path transform="translate(729,974)" d="m0 0 3 1h-2v2h-3l-1 3-4-1-2-2z" fill="#FEFEFE"/>
<path transform="translate(1445,916)" d="m0 0 5 2 6 8-1 2-10-11z" fill="#FEFEFE"/>
<path transform="translate(318,904)" d="m0 0 1 3-3 3-5-1v-3z" fill="#FEFEFE"/>
<path transform="translate(651,893)" d="m0 0 7 1-2 2-11 3 1-2 3-1z" fill="#FEFEFE"/>
<path transform="translate(393,884)" d="m0 0h3l1 4-3 1-6-2v-2z" fill="#FEFEFE"/>
<path transform="translate(819,763)" d="m0 0 2 2 3 6 2 1v2l-4 3-3-11z" fill="#FEFEFE"/>
<path transform="translate(812,745)" d="m0 0h2l2 6v5l-3-1z" fill="#4FAAF5"/>
<path transform="translate(330,721)" d="m0 0 2 2-5 1v3l-3 1-4-4z" fill="#FEFEFE"/>
<path transform="translate(342,718)" d="m0 0h2l-1 3-3-1-1 5-6-4v-1z" fill="#FEFEFE"/>
<path transform="translate(588,578)" d="m0 0 2 3 2 6v5l-3-3-1-5z" fill="#4FAAF5"/>
<path transform="translate(1528,416)" d="m0 0 6 1 1 3h-9z" fill="#FEFEFE"/>
<path transform="translate(1578,1584)" d="m0 0 4 4 1 4-4 3z" fill="#FEFEFE"/>
<path transform="translate(402,1504)" d="m0 0h1l2 9h-4v4h-2l1-5z" fill="#FEFEFE"/>
<path transform="translate(591,1468)" d="m0 0 2 4 1 5-3 1v5h-3z" fill="#FEFEFE"/>
<path transform="translate(1135,1451)" d="m0 0 16 3-3 2-7-1-6-3z" fill="#FEFEFE"/>
<path transform="translate(1753,1321)" d="m0 0h6l2 2-14 3 2-3z" fill="#FEFEFE"/>
<path transform="translate(1762,1317)" d="m0 0 7 1 1 2-9 2z" fill="#FEFEFE"/>
<path transform="translate(830,1247)" d="m0 0h1l1 7-2 5-3 1 1-6z" fill="#FEFEFE"/>
<path transform="translate(1587,1184)" d="m0 0h6v3l-10 2 2-1z" fill="#FEFEFE"/>
<path transform="translate(741,971)" d="m0 0 3 1-3 1v3l-4 1-3-4z" fill="#FEFEFE"/>
<path transform="translate(1317,775)" d="m0 0 3 4-1 4-4 4 1-8z" fill="#FEFEFE"/>
<path transform="translate(809,725)" d="m0 0 6 9v2h-2l-1 3-3-10z" fill="#FEFEFE"/>
<path transform="translate(1181,610)" d="m0 0 5 2 6 7-1 2-10-10z" fill="#FEFEFE"/>
<path transform="translate(1166,602)" d="m0 0 7 1 4 5-7-2-4-2z" fill="#FEFEFE"/>
<path transform="translate(403,553)" d="m0 0 3 3v2l3 1-2 2-1 5h-1l-2-8z" fill="#FEFEFE"/>
<path transform="translate(582,550)" d="m0 0 3 3v2l2 1-2 7-2-4z" fill="#FEFEFE"/>
<path transform="translate(1647,514)" d="m0 0h1l-1 9-2 7-2-1 2-9z" fill="#FEFEFE"/>
<path transform="translate(1243,381)" d="m0 0v3l-9 9-2-1 4-5z" fill="#FEFEFE"/>
<path transform="translate(1892,1539)" d="m0 0v3l-5 6-5 2 6-7z" fill="#FEFEFE"/>
<path transform="translate(1731,1146)" d="m0 0h7l2 2-12 2z" fill="#FEFEFE"/>
<path transform="translate(1317,1075)" d="m0 0 6 1 1 2-9 2z" fill="#FEFEFE"/>
<path transform="translate(677,988)" d="m0 0v3l-4 3-5-2 3-2z" fill="#FEFEFE"/>
<path transform="translate(221,751)" d="m0 0 4 1-4 3h-6v-2l-2-1z" fill="#FEFEFE"/>
<path transform="translate(238,746)" d="m0 0 1 3h-3l-1 3-4-1-1-2z" fill="#FEFEFE"/>
<path transform="translate(392,513)" d="m0 0 4 5v2h2v2l-4 2-2-6z" fill="#FEFEFE"/>
<path transform="translate(331,1254)" d="m0 0 3 1h-3z" fill="#FEFEFE"/>
<path transform="translate(1541,858)" d="m0 0h2l-1 2z" fill="#FEFEFE"/>
<path transform="translate(1300,975)" d="m0 0" fill="#FEFEFE"/>
<path transform="translate(1671,894)" d="m0 0" fill="#FEFEFE"/>
<path transform="translate(1589,870)" d="m0 0" fill="#FEFEFE"/>
<path transform="translate(1580,870)" d="m0 0" fill="#FEFEFE"/>
<path transform="translate(515,853)" d="m0 0" fill="#FEFEFE"/>
</svg>
