<?xml version="1.0" encoding="UTF-8"?>
<svg version="1.1" viewBox="0 0 1280 1280" width="1280" height="1280" xmlns="http://www.w3.org/2000/svg">
<path transform="translate(627,8)" d="m0 0h20l10 5v2h2v2l4 2 5 8 2 4v69h2v-2h2v-2h2v-2h2v-2h2l1-3h2v-2h2v-2h2v-2h2v-2l8-7h3v-2l13-7h13l12 5v2l4 2 5 5v2h2v4h2l3 9v9l-5 13-73 73-3 5-2 4-1 55 5-4 1-2h2v-2l6-5 5-6h2v-2l5-5h2v-2l8-7 3-4h2v-2l8-7 1-2h2v-2h2v-2l6-5 1-2h2v-2h2v-2h2v-2l6-5 1-2h2v-2l8-7 5-5 9-6 7-1 1-1h9l12 5 6 4 4 6 4 5 2 4 1 7 1 1v5l-5 12-4 7h-2v2h-2v2l-6 5-1 2h-2v2h-2v2l-5 5h-2v2h-2v2h-2v2h-2l-1 4-3 3h-3v2h-2v2l-8 7-1 2h-2v2h-2v2l-6 5-1 2h-2v2h-2v2h-2v2l-3 3h-2v2h-2v2h-2v2l-6 5-1 2h-2v2h-2v2h-2v2l-6 5-1 2h-2v2h-2v2l-5 5h-2v2h-2v2h-2v2h-2v2l-5 5h-2v2h-2v2h-2v2l-6 5-1 2h-2v2h-2l-1 4-3 7-1 53 8-7 6-4 3-5 3-3 5-3 6-6h2v-2l5-2 7-1 1-1h9v2h8l3 2v2l4 1 3 2v2h2l7 14 2 6-1 7-3 7-2 6-1 2h-2l-1 4-4 5-3 2h-3v2h-2l-2 4-3 1v2h-2v2h-2l-1 4-6 5h-2v2h-2v2h-2l-1 4-3 3h-3v2h-2v2h-2l-1 4-4 5h-2v2h-2v2h-2v2l-5 3h-2v2h-2v2h-2v2h-2l-1 5-3 7v74h5l8-6 8-4 8-5 4-2h3v-2l15-8 4-3 4-2h3v-2l6-4h2l2-6 1-9 3-7 3-14 2-7 2-4 1-7 2-7h2v-8l1-1 2-9 3-9 2-7 1-8h2l2-6 10-10h2v-2h4v-2h24l7 4 5 6 2 1v2h2l4 7 2 9-1 8-1 7-1 1-1 8h-2v8l-1 1-1 8v2l16-8 8-5 16-8 3-3h2v-2h2l1-4 7-20 1-8 3-8 1-7 1-1 3-14 3-12 3-7 1-8 1-1 1-7 4-10 2-7 1-8 1-1 1-7 3-8 1-9 4-9 1-8 3-7 1-7 5-12 2-3h2v-2h2v-2l8-7 4-2 8-1 1-1h6v2h8l9 6 1 3h2v2h2v2h2l5 8v20l-4 16-2 4-1 7-1 1-1 8-3 7-1 8-3 9-2 9-3 7-1 8-1 1-1 9-5 14-1 1-1 7 15-8 10-7 6-2 6-4 8-4 4-5 4-7 1-7 1-1 1-8 3-7 2-9 3-10 1-7 3-7 1-8 1-1 3-14 4-10 2-7 3-5 3-4h2v-2h2v-2l7-4h26l7 4v2h2v2l4 2 5 8 3 9v10l-2 4-1 7-1 1-1 8-1 1-1 7-1 1v7l9-5 7-5 8-3 4-1v-2l9-6 16-8 5-2h16l10 5 2 4 4 2 3 3v2h2l3 10 1 1v11l-4 10-5 8-4 2v2l-7 4-9 5-8 5-6 4h-5v2l-8 5-6 4-4 2 3 2 7 1 1 1 9 2 7 3 6 1v2h6l7 6 5 4 5 11 2 11-3 10-2 7h-2l-2 4-3 3h-2v2l-7 3-2 1h-24l-1-1-10-1v-2h-8l-1-1-8-1-1-1-7-1-9-4-6-2-8-1v-2h-6l-1-1-7-1-9-4h-15l-3 2-9 3-4 1v2l-8 5-5 3-16 9 1 3 7 1 7 3 15 3 4 2 7 1 1 1 8 1 1 1 7 1 1 1 9 2 13 4 1 1 9 1 8 3 7 1 10 4 7 3v2h2v2h2v2h2v2l3 1 6 11v17l-2 5h-2l-1 5-10 10-5 3-8 1-1 1h-8l-1-1-10-1-1-1-7-1-1-1-9-2-7-3-8-1-1-1-7-1-1-1-8-1-8-3-9-3-8-1v-2h-8l-7-3-8-1-6-2-5-2-7-1-7-2v-2h-8l-1-1-9-2-7-3-8-1-1-1-7-1-1-1h-16l-5 1v2l-8 5h-3v2l-15 8-8 5-4 2v2l9 2 1 1 8 1 7 3 13 4 3 3 5 3 5 5 5 12v15l-6 11-10 10-10 5h-13l-9-2-4-2-14-3-8-3-7-1-1-1-8-1-1-1-7-1-3-2-6-2-7-1-1-1-8-1-7-3h-15l-5 3h-4v2h-4v2l-8 5-5 3-5 1v2l-8 4-8 5-15 9h-3l3 5 7 4 7 3v2l4 1 8 5 8 4 8 6 9 4 4 2v2l5 1h21l1-1h6v-2l8-1 7-3 18-4 1-1 7-1 7-3 8-1 9-3 9-2 1-1h20l11 6 8 8 5 10v19l-5 8-7 7-5 3-7 4-11 3-1 1-8 1-9 4h-4v3l4 1 2 1v2l4 1 17 8 3 2v2l4 1 14 7 6 1v-2l8-1 1-1 9-1 10-4 7-1 1-1 7-1 1-1 8-1 5-3 11-2 1-1 16-3 7-3 8-1 9-3 13-4 1-1 10-1 1-1 7-1 1-1 8-1 3-2 6-2 7-1 1-1h8v-2h21l11 6 6 6 5 12 1 1v15l-4 10-5 6h-2v2l-17 9-7 1-7 3-10 1-7 3-15 4-1 1-8 1-1 1-10 1-7 3-9 2-9 3h-6v2l-8 1-6 2-1 2 5 2 2 1v2l4 1 2 1v2l4 1 6 3 6 4 10 6 8 3h13l3-2 11-3 1-1h8v-2l7-2 9-1 10-4 7-1 7-3h8v-2l8-1 7-2 5-2h10l13 5 10 9 5 9 2 8v8l-5 12-2 3h-2v2l-6 5h-3v2l-3 2-14 3-9 3-13 4-1 1 8 5 10 6 10 5 6 4 10 5v2l4 1 5 2v2h2l4 6 1 3h2l3 8 1 1v13l-4 10-5 8-4 2v2l-10 5h-20l-12-5v-2l-6-2-9-5-3-2v-2l-4-1-16-9-6-4v7l1 1 1 7 1 1 1 8 1 1 1 10 2 3v10l-5 13-5 6-3 2h-3v2l-3 2-9 3h-12l-10-4-13-13-2-4-3-12-2-4-3-14-3-8-1-7-1-1-3-15-4-10-1-7-1-1-1-8-1-1-1-7-6-10-6-4-19-10-3-1v-2l-4-2-15-8 4 12 1 1 3 16 3 7 1 8 3 9 2 9 1 1 3 16 1 1v6h2l1 8 4 9 1 7 1 1 1 12 1 1v6l-1 1-1 7-5 8h-2v2h-2v2l-10 7-6 2h-15l-7-3-9-6-5-8-4-7-1-7-3-7-1-8-1-1-1-7-4-10-3-13-1-1-1-9-6-16-1-7-1-1v-10h-2l-3-14-1-1-4-18-3-7-1-8-3-7-1-9-7-21-9-7-10-5-6-4-7-4v-2l-4-1-8-3h-4l1 8 3 5 1 10 1 1v28l-5 9-4 3h-2v2l-7 4h-6v2h-15l-8-3-8-6-7-10-3-11-2-7-2-5-3-15-1-1v-6h-2l-1-8-1-1-1-7-4-9-3-16-1-1v-8h-2l-2-7-3-5-10-5-10-6-6-4-10-5-5-3v-2l-5-1-15-9-7-3v68l2 6 1 8 3 3v2h2v2h2v2l4 2 4 6 3 1v2h2v2h2v2h2l3 5v2h2v2h2v2l4 2 1 3h2v2h2v2h2v2l5 2 2 1v2h2l1 3 3 1v2h2l1 4 4 1v2h2l2 6 4 2 5 6 5 10v14l-4 9-1 2h-2l-1 4-3 3h-3v2h-2v2l-3 2-6 2h-17l-5-3-5-2-7-7-5-3-5-5-3-5-8-6h-3v47l3 10 1 4h2v2h2v2h2l5 5v2h2v2h2v2h2v2h2l3 3v2h2v2h2v2h2v2h2v2h2l3 3v2h2v2h2v2h2v2h2v2l3 1v2h2v2h2v2h2l5 5v2h2v2h2v2h2v2h2l3 3v2h2v2h2v2h2v2h2v2h2l3 3v2h2v2h2v2h2l5 5v2h2v2h2v2h2v2h2l3 3v2h2v2h2v2h2v2h2v2h2l3 3v2h2v2h2v2l4 1 3 3v3h2v2h2l7 13 2 6v9l-4 9-6 8-6 6-12 5h-11l-12-5-3-3-5-3-13-13-6-5-4-4v-2h-2l-5-6-6-5-7-8-5-5-6-5-7-8-4-3v-2h-2l-7-8-4-3v-2h-2l-2-3h-3v49l3 10 75 75 5 13v11l-3 9h-2l-2 6-7 7-10 5h-19l-13-7v-2l-4-2-1-3h-2v-2h-2v-2h-2v-2h-2v-2l-4-2-1-3h-2v-2h-2v-2h-2v-2l-3 1-1 66-4 9-9 9h-2v2l-12 5h-9l-10-3-3-2v-2l-4-1-5-4-6-11v-6h-2v-63h-2v2h-2v2l-5 3-4 6-6 2v4h-2l-2 4-16 9-2 1h-16l-9-4-2-1v-2l-4-2-3-3v-2h-2l-4-7-1-7-1-1v-5l1-1 1-9 2-5h2l2-4 6-8 25-25h2l2-4 12-12 3-1 1-3h2v-2h2l2-4 14-14 3-5v-56l-3 3h-2v2h-2v2h-2v2h-2v2l-3 3h-2v2h-2v2h-2v2h-2v2l-3 3h-2v2h-2v2h-2v2h-2l-2 4-3 1v2h-2v2h-2v2h-2v2h-2l-1 3h-2v2h-2v2h-2v2h-2v2h-2v2l-3 3h-2v2h-2v2h-2v2h-2v2h-2l-1 3h-2v2h-2v2h-2v2h-2v2h-2l-1 3h-2v2h-2v2h-2v2l-9 5-6 2h-13l-12-5-5-5-3-5-1-3h-2l-5-12v-5l6-15 6-8 129-129 3-5 1-57-8 7-5 5-6 7-8 7-4 4-4 2h-4v2h-20l-9-5-11-11-2-4-2-9-1-6 4-10 2-6 1-2h2l1-3h2v-2h2v-2h2v-2h2v-2h2v-2l3-3h2v-2h2v-2h2v-2h2v-2h2l1-3h2v-2h2v-2h2v-2h2v-2h2l1-3h2v-2h2v-2h2v-2h2v-2h2v-2l3-3h2v-2h2v-2h2v-2h2v-2h2l1-3h2v-2h2v-2h2v-2h2v-2h2l2-5 2-3 1-79h-6v2l-12 7-8 4-10 7-4 2h-3v2l-12 7-5 2h-3v2h-2v2l-5 4-3 6-2 6-1 8h-2v6l-1 1-1 10-3 7-2 9h-2v6l-3 7-1 8-1 1-2 9-4 14-5 10-11 11-10 3-1 1h-10l-7-2v-2l-5-1-5-3-6-6v-4h-2l-2-4-2-7v-8l2-9 1-1 1-10h2v-6l1-1 2-9 1-3-5 3-13 7-8 5-12 6-11 8-3 8-1 7-4 10-2 7-1 8-1 1-1 7-3 8-1 7-1 1-2 9-1 1-1 8h-2v6l-1 1-1 7-1 1-1 8-4 10-2 7-1 8h-2v8l-3 7-4 18-1 1-1 7-1 1-1 8-9 16h-2v2l-12 7h-23l-6-4-6-5-4-5-3-5-2-3v-19l1-1 2-9 1-1 1-8 1-1 1-7 1-1 1-8h2v-6l2-7 3-11 2-7h2v-8l1-1 1-10 4-10 3-12 1-1v-7l-8 6-8 4h-4v2l-7 4-13 7-7 5-4 10-1 1-1 8-1 1-1 7-3 8-1 7-2 7-2 5-3 13-1 1-1 7-3 8-2 8-2 9-6 11h-2v2l-3 3h-2v2l-7 4-9 3h-8l-16-8-5-4-4-5-4-11v-12l1-1 1-8h2v-8l1-1 3-17h-5v2l-12 7-6 2v2l-7 3-3 2h-3v2l-11 6-5 3-5 2h-18l-10-5v-2h-2v-2h-2v-2h-2l-5-8-2-4v-6h-2v-7h2v-8l5-8h2l2-5 7-6 15-8 7-4 5-3h3v-2l12-7 6-2v-2l-13-5-7-1-7-3-8-1v-2l-5-1-9-7-2-6h-2l-2-4v-24l5-9 3-3h3v-2h2v-2l10-5h19l5 2 6 1v2h8l7 3 8 1 1 1 9 2 9 3 14 3 7 3 10 1 1 1h19l4-3 6-2 6-4 7-4 13-7 7-5-5-1v-2h-6l-1-1-7-1-1-1-9-2-7-2v-2h-8l-1-1-8-1v-2h-8l-1-1-9-2-7-3-8-1v-2h-8l-8-3-7-1-12-5-9-5-7-9-2-4-2-7v-10l4-10 6-9 5-4 8-4 7-1 1-1h6l1 1 10 1 7 3 15 3 4 2 7 1 7 3 8 1 1 1 15 3 9 3v2h8l1 1 8 1 1 1 7 1 10 4 7 2 8 1 1 1 7 1 8 3 7 1 9 4 7 1 1 1 8 1 7 2v-2l17-8 3-3 12-6 8-5 4-2h3l-1-3-10-4-7-1-8-3-7-1-10-5v-2l-4-2-3-3v-2h-2l-4-11v-17l4-9h2l2-4 5-5 10-5h22l7 2 10 4 8 1 1 1 7 1 1 1 8 1 1 1 9 2 7 3 16 3 1 1 8 1v2l18-1 5-3h3v-2l11-6 5-3h2v-2l10-5 6-4 12-6 4-3h3v-2h2v-3l-5-2-15-8-6-3v-2l-5-2-2-1v-2h-4v-2l-5-1-7-5-8-4-7-3-2-1h-14l-9 2-1 1-8 1-7 3-7 1-4 2-7 2-8 1-7 3-8 1-1 1-7 1-9 4-9 1-2 1h-9l-12-5-4-2v-2h-2l-4-6-1-3h-2l-2-7v-17l3-8 3-5 7-7 10-5 7-1 8-3 7-1 7-2 3-1-1-3-6-3v-2l-4-1-10-5-8-6-9-5-4-1v-2l-19 1-7 3-9 2-15 4-1 1-7 1-1 1-8 1-10 4-16 4-7 1-1 1h-8v2l-8 1-7 4-9 1-7 3-7 2h-10v2l-9 2-8 3-7 1-1 1-10 1-1 1h-8l-1-1-7-1-8-5v-2h-2v-2l-4-2-5-8-1-7-1-1v-10l3-8 3-5 8-8 5-3 7-4 7-1 1-1h6v-2l7-2 9-1 10-4 13-3 1-1 7-1 1-1 8-1 1-1 7-1 10-4 7-1 1-1 7-1 7-3h4v-3l-5-2-6-3v-2l-4-1-8-5-16-8-3-2v-2l-17 1-9 4-8 1-1 1-7 1-1 1-8 1-10 4-8 1-7 3-8 1-7 3-9 2h-28l-3-2v-2h-2v-2l-4-1-5-5-4-8v-24l4-6 9-9 5-3h2v-2l8-1 9-4 7-1 1-1 8-1 3-1-1-2-6-3-6-4-14-7-10-6-6-4-7-4-6-4v-2h-2l-5-8-2-4v-21l5-9 2-3h2v-2h2v-2l12-7h18l11 6 6 4 13 6v2l6 2v2l5 1 5 3 6 4 4 2v-7l-1-2v-7h-2l-1-8-1-1-1-10-1-1v-12l3-8 1-2h2l1-4 2-3h2v-2l3-2h3v-2l3-2h26l7 4v2h2v2l3 1v2h2l4 7 4 13 4 15 1 1 1 7 1 1 1 8 4 10 3 14 1 1 1 8 3 7 1 8 4 9 4 5 15 8v2l4 1 5 2v2l6 2v2l5 1 6 4 4 1-1-7-1-1-1-7-4-10v-7h-2l-1-8-3-7-1-8-4-9-1-7-1-1v-8h-2l-1-8-3-7-1-10-2-3-1-7-1-1v-17l7-13h2v-2l10-7 4-2h21l9 5 3 3v3h2v2h2l5 8 2 6 1 8 3 7 4 18 1 1 1 7 1 1v6h2l1 8 2 7 2 5 3 13 1 1 1 7 1 1v8h2l2 7 2 9 1 1 1 7 1 1v6h2l1 8 3 7 1 9 4 10 1 7 1 1v6h2v4l4 1 12 7 6 4 10 5 2 2 6 2 8 6-1-6-1-7-1-1-1-8-1-1-1-7-1-1v-24l4-6 10-10h4v-2h4v-2h22l6 4 12 12v4h2l3 12 2 5 1 7 3 7 1 8 1 1 1 7 4 10 2 7 1 8 3 7 1 8 1 1 1 7 5 9 5 3v2h4v2l9 3 3 3 6 3v2l4 1 10 5 6 4 6 3v2l11 3 4 3-1-78-6-9v-3h-2v-2l-4-1-5-5v-3h-2v-2h-2v-2h-2l-5-5v-2h-2v-2h-2v-2h-2v-2h-2l-3-3v-2h-2v-2h-2v-2h-2v-2h-2l-3-3v-2h-2v-2h-2v-2h-2v-2h-2l-5-5v-2h-2v-2h-2v-2h-2l-7-8-4-8-1-8-1-5 1-1 1-8 4-6 6-8 6-4 4-2h24l6 4 6 6 6 3v2h2v2h2l5 6v3l4 1 6 5-1-57-4-4-3-5-130-130-5-11v-15l3-9h2l2-4 9-9 6-3 7-1 1-1h7l8 3 7 4v2l4 1 2 1v2l4 2 1 3h2v2h2v2h2v2l4 2 3 3v2h2v2h2v2h2v2l3 1v2h2v2h2l4 5 3 2v2h2v2h2v2h2v2h2v2l4 2 1 3h2v2h2v2h2v2h2v2l4 2 1 3h2v2h2v2h2v2l3 1v2h2v2h2v2h2v2h2v2l3 1v-56l-6-8-68-68v-2h-2l-3-8-1-1-1-7-1-1v-5l1-1 1-7 6-11 3-3h2v-2h4v-2l5-3 6-2h13l10 5v2h4v2h2v2l4 2 3 3v2h2v2h2v2l4 2 3 3v2h2v2h2v2l3 1 1-64 4-10 7-8h2v-2h2v-2z" fill="#fff"/>
</svg>
