<?xml version="1.0" standalone="no"?>
<!DOCTYPE svg PUBLIC "-//W3C//DTD SVG 20010904//EN"
 "http://www.w3.org/TR/2001/REC-SVG-20010904/DTD/svg10.dtd">
<svg version="1.0" xmlns="http://www.w3.org/2000/svg"
 width="1350.000000pt" height="1350.000000pt" viewBox="0 0 1350.000000 1350.000000"
 preserveAspectRatio="xMidYMid meet">
<metadata>
Created by potrace 1.10, written by Peter Selinger 2001-2011
</metadata>
<g transform="translate(0.000000,1350.000000) scale(0.100000,-0.100000)"
fill="#ffffff" stroke="none">
<path d="M6370 13135 c-19 -7 -52 -14 -73 -14 -21 -1 -69 -14 -107 -31 -38
-16 -72 -30 -77 -30 -6 0 -59 -32 -119 -71 -101 -66 -150 -111 -654 -615 -300
-299 -550 -544 -556 -544 -6 0 -41 -27 -79 -60 -72 -64 -205 -134 -310 -164
-33 -9 -83 -23 -111 -31 -43 -13 -180 -15 -873 -15 -915 0 -838 5 -1078 -72
-67 -22 -137 -50 -155 -63 -18 -13 -49 -33 -68 -44 -54 -30 -245 -228 -301
-311 -48 -73 -72 -135 -143 -381 -14 -49 -16 -150 -16 -877 0 -795 -1 -823
-21 -908 -31 -133 -113 -319 -164 -374 -13 -14 -35 -43 -49 -65 -15 -22 -273
-287 -575 -590 -511 -513 -553 -558 -623 -665 -115 -174 -150 -299 -156 -550
-4 -180 1 -207 83 -428 49 -133 82 -171 675 -767 312 -313 581 -591 598 -616
17 -25 38 -51 47 -59 23 -19 107 -190 133 -270 54 -168 52 -124 52 -1010 0
-685 2 -832 14 -874 8 -28 22 -80 31 -116 32 -122 45 -160 74 -202 15 -24 53
-83 82 -131 32 -52 71 -102 95 -120 23 -18 69 -56 103 -84 34 -29 66 -53 72
-53 5 0 40 -20 77 -44 37 -24 83 -48 102 -54 19 -6 76 -23 125 -39 l90 -28
865 -6 c679 -4 875 -8 910 -18 25 -8 75 -22 112 -33 97 -28 211 -87 313 -163
61 -45 272 -248 650 -624 531 -530 585 -579 710 -651 50 -29 170 -70 204 -70
13 0 59 -9 100 -21 65 -18 94 -21 210 -16 132 4 141 6 284 55 246 84 253 90
890 727 298 298 558 552 577 565 19 13 53 39 75 57 49 42 197 114 290 141 190
56 118 52 1003 52 519 0 830 4 847 10 14 5 49 14 78 19 81 14 178 41 222 63
56 29 198 123 215 143 7 9 26 23 42 31 66 34 278 353 278 419 0 11 14 70 30
130 l30 110 0 818 c0 724 2 826 16 885 43 175 115 338 186 419 21 24 38 49 38
55 0 6 252 264 560 572 387 389 579 588 625 650 36 49 65 94 65 99 0 5 14 43
31 85 59 148 70 212 67 394 -6 263 -49 411 -166 576 -26 36 -290 311 -588 611
-297 300 -553 564 -569 586 -16 22 -46 59 -67 83 -45 50 -120 197 -147 291
-55 185 -51 114 -51 1018 l0 840 -29 89 c-16 49 -32 107 -36 128 -7 42 -45
116 -109 211 -49 73 -238 263 -298 299 -83 49 -202 106 -223 106 -12 0 -41 6
-66 14 -148 46 -140 46 -1004 46 -687 0 -825 2 -864 15 -25 8 -75 22 -111 31
-78 21 -246 102 -292 142 -18 16 -49 39 -68 52 -19 12 -289 277 -600 586 -609
608 -606 605 -795 686 -142 61 -231 78 -399 77 -101 0 -163 -5 -186 -14z
m2340 -4465 c19 -5 64 -16 100 -25 96 -24 165 -66 255 -154 89 -86 130 -154
170 -275 52 -159 22 -332 -83 -488 -27 -40 -57 -80 -66 -88 -10 -7 -24 -27
-33 -44 -9 -17 -42 -58 -73 -91 -31 -33 -67 -76 -80 -95 -13 -19 -42 -55 -64
-80 -40 -44 -76 -92 -143 -187 -17 -25 -47 -62 -66 -82 -19 -20 -45 -52 -58
-71 -13 -19 -45 -59 -71 -88 -27 -29 -48 -57 -48 -62 0 -5 -28 -40 -63 -77
-35 -38 -77 -88 -94 -113 -17 -25 -41 -54 -53 -65 -12 -11 -36 -40 -53 -65
-16 -25 -45 -61 -63 -80 -31 -32 -50 -58 -144 -186 -19 -26 -56 -72 -82 -101
-27 -29 -48 -57 -48 -63 0 -5 -30 -42 -67 -82 -63 -69 -84 -96 -170 -216 -18
-25 -52 -66 -76 -91 -42 -43 -88 -102 -165 -210 -19 -25 -54 -67 -78 -93 -24
-26 -44 -51 -44 -57 0 -5 -27 -39 -60 -75 -33 -37 -60 -71 -60 -76 0 -5 -26
-38 -58 -72 -59 -63 -120 -140 -178 -224 -17 -24 -59 -73 -92 -108 -34 -35
-62 -69 -62 -74 0 -5 -24 -36 -52 -68 -29 -33 -80 -97 -113 -144 -33 -46 -78
-104 -101 -129 -22 -26 -51 -62 -64 -81 -12 -19 -66 -79 -119 -133 -70 -72
-114 -108 -161 -132 -199 -101 -371 -101 -570 0 -58 30 -148 117 -826 797
-561 563 -771 780 -801 828 -23 36 -54 105 -68 153 -25 78 -27 99 -23 190 5
99 6 105 55 202 52 101 139 206 224 269 36 26 122 59 202 76 23 5 61 14 84 21
35 11 51 10 102 -4 34 -9 89 -25 123 -34 114 -32 159 -71 663 -574 326 -325
487 -479 501 -479 21 0 114 101 179 196 17 23 47 62 68 86 59 67 139 166 174
216 18 25 47 61 66 81 19 20 44 52 57 71 13 19 42 56 64 82 39 44 78 93 153
191 18 23 55 69 83 102 91 108 211 262 257 330 15 22 54 70 88 106 83 92 212
255 279 354 19 28 53 68 76 90 23 22 60 65 81 95 93 129 121 166 171 220 49
53 76 87 165 203 18 23 53 67 78 97 25 30 64 79 88 108 43 54 62 78 170 216
162 206 244 270 417 328 122 40 145 43 200 28z"/>
</g>
</svg>
